<?xml version="1.0" encoding="utf-8"?>
<!-- Generator: Adobe Illustrator 22.1.0, SVG Export Plug-In . SVG Version: 6.00 Build 0)  -->
<svg version="1.1" xmlns="http://www.w3.org/2000/svg" xmlns:xlink="http://www.w3.org/1999/xlink" x="0px" y="0px"
	 viewBox="0 0 313.2 130.6" style="enable-background:new 0 0 313.2 130.6;" xml:space="preserve">
<style type="text/css">
	.st0{fill:#FFFFFF;}
	.st1{clip-path:url(#SVGID_2_);}
	.st2{fill:#231F20;}
	.st3{clip-path:url(#SVGID_4_);}
	.st4{clip-path:url(#SVGID_6_);}
	.st5{clip-path:url(#SVGID_8_);}
	.st6{clip-path:url(#SVGID_10_);}
	.st7{clip-path:url(#SVGID_12_);}
	.st8{clip-path:url(#SVGID_14_);}
	.st9{clip-path:url(#SVGID_16_);}
	.st10{clip-path:url(#SVGID_18_);}
	.st11{clip-path:url(#SVGID_20_);}
	.st12{fill:#179DFF;}
	.st13{clip-path:url(#SVGID_22_);}
	.st14{clip-path:url(#SVGID_24_);}
	.st15{clip-path:url(#SVGID_26_);}
	.st16{clip-path:url(#SVGID_28_);}
	.st17{clip-path:url(#SVGID_30_);}
	.st18{clip-path:url(#SVGID_32_);}
	.st19{clip-path:url(#SVGID_34_);}
	.st20{fill:#FFDA17;}
	.st21{clip-path:url(#SVGID_36_);}
	.st22{fill:#EB4F4F;}
	.st23{clip-path:url(#SVGID_38_);}
	.st24{clip-path:url(#SVGID_40_);}
	.st25{clip-path:url(#SVGID_42_);}
	.st26{clip-path:url(#SVGID_44_);}
	.st27{clip-path:url(#SVGID_46_);}
	.st28{clip-path:url(#SVGID_48_);}
</style>
<g id="Layer_2">
	<ellipse class="st0" cx="103.3" cy="103.6" rx="7.3" ry="2"/>
	<ellipse class="st0" cx="103.2" cy="61.4" rx="6.2" ry="1.9"/>
	<ellipse class="st0" cx="103.1" cy="66.5" rx="5.7" ry="1.2"/>
	<rect x="97" y="60.6" class="st0" width="12.2" height="3.3"/>
	<rect x="97.9" y="62.6" class="st0" width="10.5" height="18.8"/>
	<path class="st0" d="M107.2,67.2L107.2,67.2c1.2,0,2.2-1,2.2-2.2v-1.2c0-1.2-1-2.2-2.2-2.2h0c-1.2,0-2.2,1-2.2,2.2V65
		C105.1,66.2,106,67.2,107.2,67.2z"/>
	<rect x="96" y="70.9" class="st0" width="14.6" height="32.6"/>
	<ellipse class="st0" cx="103.4" cy="71.2" rx="7.2" ry="2.5"/>
	<ellipse class="st0" cx="103.4" cy="71.2" rx="7.2" ry="2.5"/>
</g>
<g id="Layer_1">
	<g id="surface1">
		<g>
			<g transform="translate(37.640627, 215.558115)">
				<path d="M45.8-109.9h-10l-0.1-48.2l-20.4,41.5H8.2l-20.4-41.5v48.2h-10.2v-64.5h12.9l21.3,42.9L33-174.5h12.8V-109.9z"/>
			</g>
		</g>
		<g>
			<g transform="translate(122.896049, 215.558115)">
				<path d="M-30.9-109.9"/>
			</g>
		</g>
		<g>
			<g transform="translate(146.675406, 215.558115)">
				<path d="M-5.3-142.2L5.9-159h11.6L1.7-135.1l16.9,25.2H6.4l-11.7-18l-12.5,18h-11.8l17.3-25.2L-28.4-159h12.2L-5.3-142.2z"/>
			</g>
		</g>
		<g>
			<g transform="translate(197.736491, 215.558115)">
				<path d="M-1.2-174.9c8.4,0,15.9,2.2,22.6,6.6l-4.5,9.6c-6.6-4-12.9-6-18.9-6c-3.3,0-5.8,0.6-7.7,1.8c-1.9,1.2-2.8,2.8-2.8,5
					c0,2.1,0.9,4,2.6,5.5c1.7,1.5,3.9,2.6,6.5,3.3c2.6,0.7,5.4,1.6,8.4,2.7c3,1.1,5.8,2.2,8.4,3.4c2.6,1.2,4.7,3.1,6.4,5.6
					c1.7,2.6,2.5,5.6,2.5,9.3c0,5.7-2.3,10.2-6.8,13.6c-4.5,3.4-10.4,5.1-17.6,5.1c-4.9,0-9.7-0.9-14.3-2.8
					c-4.6-1.8-8.6-4.3-12.1-7.5l4.7-9.4c3.3,3,6.8,5.3,10.7,7c3.9,1.6,7.6,2.4,11.1,2.4c3.8,0,6.8-0.7,8.9-2.1
					c2.1-1.4,3.2-3.3,3.2-5.8c0-2.2-0.9-4.1-2.6-5.6c-1.7-1.5-3.9-2.6-6.5-3.3c-2.6-0.7-5.4-1.6-8.4-2.6c-3-1-5.8-2.1-8.4-3.2
					c-2.6-1.1-4.7-3-6.5-5.5c-1.7-2.5-2.6-5.6-2.6-9.1c0-5.5,2.1-9.8,6.5-13.1C-14-173.3-8.3-174.9-1.2-174.9z"/>
			</g>
		</g>
		<g>
			<g transform="translate(255.06499, 215.558115)">
				<path d="M-2-159.4c7.6,0,13.7,2.3,18.4,6.9c4.7,4.6,7.1,10.6,7.1,18c0,7.4-2.4,13.4-7.1,18c-4.7,4.6-10.9,6.9-18.4,6.9
					c-7.6,0-13.8-2.3-18.5-6.9c-4.7-4.6-7.1-10.6-7.1-18c0-7.4,2.4-13.4,7.1-18C-15.8-157.1-9.7-159.4-2-159.4z M-2-150.2
					c-4.4,0-8,1.5-10.8,4.4c-2.8,2.9-4.2,6.8-4.2,11.4c0,4.7,1.4,8.6,4.2,11.5c2.8,2.9,6.4,4.4,10.8,4.4c4.4,0,8-1.5,10.8-4.4
					c2.8-2.9,4.2-6.8,4.2-11.5c0-4.7-1.4-8.5-4.2-11.4C5.9-148.8,2.3-150.2-2-150.2z"/>
			</g>
		</g>
		<g>
			<g transform="translate(312.670013, 215.558115)">
				<path d="M-12-109.9h-10.6v-68.4H-12V-109.9z"/>
			</g>
		</g>
		<g>
			<defs>
				<rect id="SVGID_1_" x="95.1" y="69.1" width="16.6" height="37"/>
			</defs>
			<clipPath id="SVGID_2_">
				<use xlink:href="#SVGID_1_"  style="overflow:visible;"/>
			</clipPath>
			<g class="st1">
				<path class="st2" d="M110.7,77.7C110.8,77.7,110.7,77.7,110.7,77.7C110.7,77.7,110.8,77.7,110.7,77.7z M110.7,81.3
					c0.1-0.1,0.1-0.1,0-0.2C110.7,81.1,110.7,81.1,110.7,81.3C110.7,81.2,110.7,81.2,110.7,81.3z M100.4,105.9
					c-0.1-0.1-0.2-0.2-0.4-0.1C100.1,105.9,100.2,105.9,100.4,105.9z M96.7,69.7c0.2-0.1,0.4-0.2,0.7-0.1c0.1,0.2,0.1,0.3,0,0.5
					c-0.2,0-0.3-0.1-0.5-0.1c0,0.2,0.2,0.3,0.3,0.3c0.3,0.1,0.7,0.2,1,0.3c0.2,0,0.3,0.1,0.5,0.2c0.1,0,0.3,0,0.5,0
					c0.1,0.1,0.1,0.2,0.1,0.4c-0.1,0-0.2,0-0.3,0c-0.4-0.1-0.9-0.2-1.3-0.2c-0.5-0.1-1-0.3-1.5-0.2c-0.1,0.4-0.1,0.8-0.1,1.1
					c0,0.6,0,1.2,0,1.8c0,0.5,0,1,0,1.5c0,0.6,0,1.2,0,1.8c0,0.4,0.1,0.9,0,1.3c-0.1,0.6,0.1,1.2,0,1.8s0,1.2,0,1.8
					c0,0.4,0,0.9,0,1.3c0,0.5,0,0.9,0.1,1.4c0,0.1,0,0.2,0,0.3c0,0.3,0,0.6,0,0.9c0,0.8,0,1.6,0,2.3c0,0.5-0.1,1,0,1.5
					c0.1,0.4,0,0.8,0,1.3c0,0.2,0,0.4,0,0.6c0,0.4,0,0.8,0,1.3c0,0.1,0,0.2,0,0.3c-0.1,0.3,0.1,0.6,0,0.9c0.1,0.9,0,1.8,0.1,2.8
					c0,0.9,0,1.9,0,2.8c0,0.5,0,1,0,1.5c0,0.7,0,1.4,0,2.1c0,0.1,0,0.3,0,0.4s0,0.3,0,0.5c0,0.1,0.1,0.1,0.1,0.2
					c0.1,0.1,0.2,0.1,0.4,0.2c0.3,0.1,0.7,0.2,1,0.3c0.3,0.1,0.6,0.2,1,0.3c0.8,0.3,1.6,0.4,2.4,0.5c1,0.2,2,0.1,3,0
					c0.5,0,1,0,1.4-0.1c0.2,0,0.3-0.1,0.5-0.1c0.3-0.1,0.6-0.1,0.9-0.2c0.3-0.1,0.6-0.1,0.9-0.2c0.4-0.1,0.8-0.2,1.2-0.4
					c0.3-0.1,0.6-0.3,0.9-0.5c0.2-0.1,0.4-0.2,0.6-0.4c0-0.1,0-0.3,0-0.4c0-0.2,0-0.3,0.1-0.5c0-0.1,0-0.3,0-0.4c0-0.5,0-0.9,0-1.4
					c0-0.7,0-1.5,0-2.2c0-0.7,0-1.3-0.1-2c0-0.6,0-1.2,0-1.8c0-1.3,0-2.6,0-3.9c0-0.9,0-1.8,0-2.7c0-1.6,0-3.1,0-4.7
					c0-0.4,0-0.9,0-1.3c0-0.2-0.1-0.4,0-0.6c0-0.4,0-0.8,0-1.1c0.1-0.7,0-1.4,0-2.1c0-0.7,0-1.4,0-2.1c0-0.6,0-1.3-0.1-1.9
					c0-0.4,0-0.8,0-1.2c0-0.2,0-0.4,0-0.6c0-0.7,0-1.5,0-2.2c0-0.1,0-0.1,0-0.2c-0.2-0.1-0.4-0.2-0.6-0.3c-0.1,0-0.2,0.1-0.3,0.1
					c-0.1,0.2-0.2,0.3-0.4,0.3c-0.7,0.2-1.3,0.3-2,0.4c-0.5,0.1-0.9,0.1-1.4,0.2c-0.1,0-0.3,0-0.4,0c-0.2,0-0.4,0-0.5,0.1
					c0,0-0.1,0-0.1,0c-0.6-0.1-1.3,0-1.9,0c-0.7,0-1.4,0-2.1-0.1c-0.4,0-0.7-0.1-1.1-0.1c0,0-0.1,0-0.1-0.1c0-0.1,0-0.2,0-0.3
					c0.2-0.1,2.7,0.1,2.9,0.1c0.3,0,0.5,0,0.7,0c0.5,0,1,0,1.4,0c0.7,0,1.3-0.1,2-0.2c0.3,0,0.6-0.1,1-0.1c0.5,0,1-0.2,1.5-0.3
					c0.2,0,0.4-0.1,0.5-0.2c0,0,0-0.1,0.1-0.1c-0.2,0-0.3,0-0.4,0.1c-0.1-0.3-0.2-0.6,0-0.9c0.6,0,1.1,0.3,1.6,0.8
					c0,0.2,0,0.4,0,0.7c0,0.6,0.1,1.3,0.1,1.9c0,0.4,0,0.8,0,1.3c0,0.3,0,0.6,0,0.9c0,0.5,0,1.1,0,1.6c0,1.1,0,2.1,0,3.2
					c0,0.4,0,0.7,0,1.1c-0.1,0-0.1,0-0.2,0c-0.1,0.1,0,0.2,0.1,0.3c0-0.1,0.1-0.1,0.1-0.2c0,0.1,0.1,0.1,0.1,0.1c0,0.2,0,0.4,0,0.5
					c0,0.1,0,0.2,0,0.3c0.1,1,0,2,0,3c0,0.9,0,1.7,0.1,2.6c0,0.4,0,0.9,0,1.3c0,0.1,0,0.2-0.1,0.3c0,0,0.1,0.1,0.1,0.1
					c0,0.3,0,0.5,0,0.8c0,0.4,0,0.9,0,1.3c0,0.4,0,0.7,0,1.1c0,0.3,0,0.5,0,0.8c0,0.3,0,0.5,0,0.8c0,0.2,0,0.4,0,0.6
					c0,0.2,0,0.2-0.1,0.4c0.2,0.3,0.1,0.7,0.1,1.1c0,0.4-0.1,0.7,0,1.1c0,0.4,0,0.7,0,1.1c0,0.2-0.1,0.5,0,0.7
					c0,0.1,0.1,0.2-0.1,0.3c0,0,0.1,0.1,0.2,0.1c0,0.3,0,0.7,0,1.1c0,0.4,0,0.9,0.1,1.3c0,0.1,0,0.2,0,0.2c0,0.3,0.1,0.5,0.1,0.8
					c0,0.1,0,0.3,0,0.4c0,0-0.1,0.1,0,0.1c0.1,0.3-0.1,0.6-0.1,0.8c-0.3,0.6-0.8,0.8-1.3,1.1c-0.3,0.1-0.6,0.3-0.9,0.4
					c-0.3,0.1-0.6,0.2-1,0.2c0,0-0.1,0-0.1,0c-0.4,0.1-0.8,0.2-1.3,0.2c-0.3,0-0.6,0-0.9,0c-0.6,0-1.2,0.1-1.8,0.1
					c-0.1,0-0.3,0-0.4-0.1c-0.2-0.1-0.5-0.1-0.7,0.1c-0.3,0-0.5-0.1-0.8-0.1c-0.1,0-0.2,0-0.3,0c-0.6,0-1.2-0.1-1.8-0.2
					c-0.8-0.1-1.5-0.4-2.3-0.6c-0.2,0-0.3-0.1-0.5-0.1c-0.3,0-0.5-0.1-0.7-0.4c0-0.1-0.1-0.1-0.2-0.1c-0.2-0.1-0.2-0.3-0.2-0.5
					c0-0.6,0-1.1-0.1-1.7c0-0.3,0-0.6,0-0.8c0-0.5,0-1.1,0-1.6c-0.1-2.2,0-4.3-0.1-6.5c0-0.8,0-1.6,0-2.4c0-0.5,0-1,0-1.4
					c0-0.4,0-0.8,0-1.2c0-0.3,0-0.6,0-0.9c0-0.3,0-0.6,0-0.9c0-1.1,0-2.3,0-3.5c-0.1-1.3,0-2.6-0.1-3.9c0-1.4,0-2.8,0-4.2
					c0-1.1,0-2.2,0-3.4c0-0.3,0-0.5-0.1-0.8c0-0.5,0-0.6,0.4-1c0.1,0.1,0.1,0.1,0.3,0c0,0-0.1-0.1-0.1-0.1
					C96.4,69.9,96.6,69.8,96.7,69.7C96.8,69.7,96.8,69.7,96.7,69.7C96.8,69.7,96.8,69.7,96.7,69.7"/>
			</g>
		</g>
		<path class="st2" d="M100.5,59.5C100.5,59.5,100.5,59.5,100.5,59.5C100.5,59.5,100.5,59.5,100.5,59.5
			C100.5,59.5,100.5,59.5,100.5,59.5z M107.2,69.3c0-0.1-0.1-0.2-0.1-0.2c0-0.2,0-0.3-0.1-0.5c-0.2,0.1-0.2,0.2-0.2,0.4
			c0,0.3-0.1,0.6,0,0.9c0,0.2-0.1,0.3-0.1,0.5c-0.2,0-0.2-0.1-0.2-0.2c0-0.2,0-0.5,0-0.7c0-0.2,0-0.5-0.1-0.7
			c-0.2,0-0.1,0.1-0.1,0.2c0,0.5,0,0.9-0.1,1.4c-0.2,0-0.3,0-0.4,0c0-0.4,0-0.8-0.1-1.1c-0.1,0.3-0.1,0.6-0.1,0.9
			c0,0.1,0,0.2-0.2,0.3c-0.1,0-0.2-0.1-0.3-0.1c0-0.5-0.1-1-0.1-1.5c0.2-0.1,0.4,0,0.6,0c0.2,0,0.3,0,0.5,0
			c-0.2-0.2-0.3-0.2-0.5-0.2c-0.6,0-1.2-0.1-1.7-0.1c-0.2,0-0.3-0.1-0.4-0.4c-0.1,0.1-0.1,0.2-0.1,0.3c-0.2,0.1-0.4-0.1-0.6,0
			c-0.2,0.1-0.4,0-0.6,0c-0.2,0-0.4,0-0.5,0.1c-0.6,0-1.1,0-1.7,0c-0.3,0-0.6,0-0.9,0.1c-0.2,0-0.3,0-0.5,0
			c-0.1,0.4-0.2,0.9-0.2,1.3c-0.3,0-0.6,0-0.7-0.3c0-0.5,0-1,0.1-1.5c0,0,0,0,0,0c0-0.1-0.1-0.2-0.1-0.3c-0.1-0.2-0.1-0.4-0.3-0.5
			c-0.2-0.2-0.4-0.5-0.6-0.8c0-0.4-0.1-0.8,0.4-1c0.1,0.1,0.1,0.1,0.2,0.2c0.2-0.1,0.1-0.3,0.1-0.5c-0.1-0.2-0.1-0.4-0.1-0.7
			c0,0,0-0.1-0.1-0.1c-0.2-0.1-0.5-0.2-0.6-0.5c0-1.1,0.1-2.1,0.1-3.2c0.3-0.5,0.9-0.7,1.4-0.9c0.5-0.1,1-0.3,1.5-0.4
			c0.4,0,0.7-0.1,1.1-0.2c0.2,0,0.4,0,0.6,0c0.1,0.1,0.2,0.1,0.4,0.2c0.1-0.1,0.1-0.1,0.2-0.2c0.8,0,1.7,0,2.6,0
			c0,0.3-0.1,0.4-0.3,0.4c-0.1,0-0.3,0-0.4,0c-0.2,0-0.4,0-0.7,0c-0.2,0-0.3,0-0.5,0c-0.5,0-1,0-1.5,0c-0.1,0-0.3,0-0.4,0.1
			c-0.7,0.1-1.4,0.2-2.1,0.4c-0.4,0.1-0.8,0.3-1.2,0.6c-0.2,0.2-0.3,0.3-0.4,0.5c-0.1,0.2-0.1,0.3,0,0.5c0.1,0.2,0.1,0.4,0.1,0.6
			c0,0.6,0,1.2,0,1.9c0.2,0.1,0.3-0.1,0.4-0.2c0-0.5-0.2-1-0.1-1.5c0.1,0.1,0.2,0.1,0.3,0.1c0.1,0.5,0.1,1.1-0.1,1.6
			c0,0.1,0.1,0.2,0.2,0.3c0,0.3,0,0.6,0,0.9c0,0.3-0.2,0.4-0.4,0.6c-0.1,0.1-0.3,0.2-0.4,0.3c0.2,0.2,0.3,0.3,0.5,0.4
			c0.1,0,0.1,0.1,0.1,0.1c0.1,0.1,0.3,0.2,0.5,0.3c0.5,0.3,1.1,0.3,1.6,0.5c0.1,0,0.1,0,0.2,0c0.4,0.1,0.9,0.1,1.3,0.2
			c0.4,0,0.8,0.1,1.2,0.1c0.4,0,0.7,0.1,1.1,0.1c0.2,0,0.3,0,0.5,0c0.4,0,0.8-0.1,1.2-0.1c0.3,0,0.6-0.1,0.9-0.1
			c0.4,0,0.7-0.1,1.1-0.2c0.2,0,0.3-0.1,0.5-0.2c0.3,0,0.5-0.2,0.8-0.3c0.1,0,0.1-0.1,0.2-0.1c0-0.1,0-0.2,0-0.2
			c0-0.2,0-0.3,0.2-0.4c0.2-0.2,0.3-0.4,0.3-0.6c0-0.7,0-1.4,0-2.1c0-0.5,0-0.9,0.1-1.4c0.1-0.3,0-0.7-0.2-1
			c-0.2-0.4-0.6-0.6-0.9-0.7c-0.4-0.2-0.8-0.3-1.3-0.4c-0.3,0.1-0.7,0-1-0.2c-0.3,0.1-0.9,0-1.1-0.1c0-0.1,0-0.2,0.1-0.3
			c0.3,0,0.5,0,0.8,0c0.3,0.1,0.6,0.1,0.8,0.1c0.1,0,0.2,0,0.2,0c0.3,0.1,0.6,0.1,0.9,0.1c0.1,0,0.2,0.1,0.3,0.1
			c0.3,0.1,0.5,0.3,0.8,0.3c0.2,0.1,0.4,0.2,0.6,0.4c0.1,0.1,0.2,0.2,0.3,0.4c0,0.4,0,0.9,0.1,1.3c0,0.4,0,0.8,0,1.3
			c0,0.4-0.1,0.9-0.1,1.3c0,0.1,0,0.2,0,0.3c0.1,0.5-0.2,1-0.5,1.4c-0.3,0.4-0.4,0.9-0.5,1.4c0,0.4,0,0.8,0,1.2c0,0.3,0,0.7-0.1,1
			c0,0.1,0,0.1-0.1,0.2c-0.2,0-0.4-0.1-0.6-0.1c-0.2-0.3,0-0.7-0.1-1.1c-0.2,0.1-0.1,0.3-0.2,0.4c-0.2-0.4-0.1-0.9-0.3-1.3
			c-0.1,0.1-0.1,0.3-0.1,0.4c0,0.2-0.1,0.4-0.1,0.6C107.2,69.2,107.2,69.2,107.2,69.3L107.2,69.3"/>
		<path class="st2" d="M103.3,99.6c0,0-0.1,0.1-0.1,0.1c0,0.2,0,0.3,0,0.5c0,0.3,0,0.7,0,1c0,0.1,0,0.2-0.2,0.2c0-0.1,0-0.2,0-0.3
			c0-1.2,0-2.3,0-3.5c0-0.6,0-1.3,0-1.9c0-0.3,0-0.6,0-0.9c0-0.3,0-0.6,0-0.9c0-0.6,0-1.2,0-1.8c0-0.1,0-0.3,0-0.4
			c0-0.6,0-1.3,0-1.9c0-0.6,0-1.1,0-1.7c0-0.7,0-1.4,0-2.1c0-2,0-4,0-6c0-0.9,0-1.7,0-2.6c0-0.3,0-0.6,0-0.9c0-0.7-0.1-1.3-0.1-2
			c0-0.5,0-1.1,0-1.6c0-0.1,0.1-0.1,0.1-0.2c0,0,0,0,0.1,0c0,0.3,0,0.6,0,0.9c0.1,0,0.3,0.1,0.4,0.1c0.1-0.3,0.1-0.7,0.1-1.1
			c0,0,0.1,0,0.1,0c0,5.2,0.2,10.3,0.1,15.6c0,0,0,0.1,0.1,0.2c0,0,0,0.1,0,0.1c0,0.2,0,0.3,0,0.5c0,0.2,0,0.5,0,0.7
			c0,0.3,0,0.7,0,1c0,0.4,0.1,0.8,0.1,1.2c0,0.6,0,1.3,0,1.9c0,0.5,0,1,0,1.5c0,0.2,0,0.4,0,0.6c0,0.5-0.1,1.1,0,1.6
			c0,0.3,0,0.6,0,0.9c0,0.1,0,0.1,0,0.2c0.1,0.2,0,0.5,0,0.7c0,0.1,0.1,0.2,0.1,0.2c0,0,0,0,0,0c0,0.4,0,0.9,0,1.3
			c0,0-0.1,0.1-0.1,0.1c-0.2-0.1-0.1-0.2-0.1-0.3c0-1.3,0-2.5-0.1-3.8c0-1,0-2,0-3c0-1.4,0-2.9-0.1-4.3c0-1.4,0-2.8,0-4.2
			c0-0.8,0-1.5,0-2.3c0-0.5,0-1,0-1.6c0-0.5,0-1,0-1.5c0-0.7,0-1.5,0-2.2c0-0.8,0-1.6,0-2.4c0-0.4,0-0.9,0-1.3c0-0.1,0-0.2-0.1-0.3
			c-0.1,0-0.2,0.1-0.4,0.1c0,0.1,0,0.1,0,0.2c0,0.6,0,1.3,0,1.9c0,0.4,0,0.7,0.1,1.1c0,0.2,0,0.5,0,0.7c0,0.5,0,1.1,0,1.6
			c0,0.1,0,0.3,0.1,0.5c0,0-0.1,0.1-0.1,0.2c0,0,0,0,0,0c0,0.2,0,0.5,0,0.7c0,0.5,0,1,0,1.5c0,0.1,0,0.3,0,0.4c0,0.6,0.1,1.2,0,1.7
			c0,0.4,0,0.8,0,1.2c0,1,0,2.1,0,3.1c0,0.8,0,1.7,0,2.5c0,0.1,0,0.2,0,0.3c0,0.2,0,0.4,0,0.6c0,0.3,0,0.6,0,0.8c0,0.4,0,0.7,0,1.1
			c0,0.5,0,1,0,1.4c0,0.3,0,0.6,0,0.9c0,0.6,0,1.2,0,1.8C103.2,98.8,103.3,99.2,103.3,99.6"/>
		<path class="st2" d="M99.7,61.6C99.7,61.6,99.7,61.6,99.7,61.6C99.7,61.6,99.7,61.6,99.7,61.6C99.7,61.5,99.7,61.6,99.7,61.6
			C99.7,61.6,99.7,61.6,99.7,61.6z M101.9,62.5c-0.2,0-0.3-0.1-0.5-0.1c0-0.2,0-0.4,0-0.6c0,0,0,0,0,0c0,0.1-0.1,0.1-0.1,0.2
			c0,0.2,0,0.3-0.1,0.4c-0.3,0.1-0.4,0-0.5-0.3c-0.1,0.2-0.3,0.2-0.4,0.2c-0.3,0-0.6-0.1-0.8-0.1c-0.4-0.1-0.7-0.2-1.1-0.4
			c-0.1,0-0.2-0.1-0.2-0.2c-0.1-0.2,0.1-0.6,0.3-0.7c0.1-0.1,0.3-0.2,0.4-0.2c0.4-0.1,0.7-0.1,1-0.2c0.5-0.2,1.1-0.2,1.6-0.2
			c0.1,0,0.3,0,0.4,0c0.1,0,0.2,0,0.3,0c0,0.3,0,0.5,0,0.8c0,0,0,0.1-0.1,0.2c0,0.3-0.1,0.6-0.1,0.9C102,62.3,101.9,62.4,101.9,62.5
			"/>
		<path class="st2" d="M106.8,72.6c0,0.3,0,0.6,0,0.9c0,0.2,0,0.4,0,0.7c0,0.2,0,0.3,0,0.5c0,0.2,0,0.3,0,0.5c0,0.1,0,0.1,0,0.2
			c-0.1,0.3,0,0.6,0,0.8c0,0.3,0,0.6,0,0.8c0,0.5,0,1,0,1.5c0,0.5,0,1,0,1.6c0,0.3,0,0.6,0,1c0,0.2,0,0.3,0,0.5c-0.1,0.7,0,1.3,0,2
			c0,1,0,2,0,2.9c0,0.7,0.1,1.4,0,2c0,0.6,0.1,1.1,0,1.6c0,0.3,0,0.6,0,0.9c0,0.5,0,1.1,0,1.6c0,0.4,0,0.9,0,1.3c0,0.7,0,1.4,0,2
			c0,0.5,0,0.9,0,1.4c0,0.1,0,0.1,0,0.2c0,0.1,0,0.2,0,0.2c0.1,0.4,0,0.8,0,1.2c0,0.4,0,0.8,0,1.1c0,0.4,0,0.8,0,1.2
			c0,0,0,0-0.1,0.1c0-0.2,0-0.4,0-0.5c0-0.1,0-0.1,0-0.2c-0.1-0.6,0-1.2,0-1.8c0-0.2,0-0.4,0-0.5c0-0.4,0-0.8,0-1.1
			c0-0.1,0-0.3,0-0.4c0-0.2,0-0.4,0-0.6c0-1.8,0-3.6,0-5.5c0-0.6,0-1.1,0-1.7c0-0.1,0-0.3,0-0.4c0-0.1,0-0.3,0-0.4
			c0-0.8,0-1.6,0-2.3c0-0.9,0-1.8,0-2.7c0-0.4,0-0.8,0-1.2c0-1.1,0-2.1,0-3.2c0-1-0.1-2-0.1-3.1c0-1,0-2,0-3.1
			C106.7,72.8,106.6,72.7,106.8,72.6"/>
		<path class="st2" d="M107.4,84.9c0.2,0.2,0.2,0.4,0.2,0.6c0,0.3,0,0.7,0,1c0,0.1,0,0.3,0,0.4c0,0.2,0,0.4,0,0.6c0,0.4,0,0.8,0,1.1
			c0,0.1,0,0.3,0,0.4c0,0.2,0,0.5,0,0.7c0,0.4,0,0.8,0,1.3c0,0.8,0,1.6,0,2.5c0,0.3,0,0.7,0,1c0,0.3,0,0.5,0,0.8c0,0.2,0,0.3,0,0.5
			c0,0.2,0,0.3,0,0.5c0,0.1,0,0.3,0,0.4c0,0.7,0,1.4,0,2c0,0.3,0,0.6,0,1c0,0,0,0.1,0,0.1c0.1,0.4,0,0.7,0,1.1c0,0.2,0,0.4,0,0.6
			c-0.2-0.1-0.1-0.2-0.1-0.3c0-0.5,0-1,0-1.5c0-0.9,0-1.8,0-2.7c0-0.6,0-1.3-0.1-1.9c-0.1-2.7,0-5.3-0.1-8c0-0.6,0-1.3,0-1.9
			C107.3,85,107.4,85,107.4,84.9"/>
		<path class="st2" d="M97,100.3c0-0.4,0-0.9,0-1.3c0-0.6,0-1.2-0.1-1.8c0-0.3,0.1-0.7,0-1c0-0.3,0.1-0.7,0-1c-0.1-0.1,0-0.3,0-0.5
			c0-1.7,0-3.3,0-5c-0.1-2,0-4-0.1-6c0-0.4,0-0.8,0-1.2c0-0.9-0.1-1.8-0.1-2.8c0-0.7,0-1.5,0-2.2c0-0.1,0-0.2,0.1-0.3
			c0,0.1,0,0.1,0,0.2c0,0.5,0,1,0,1.5c0,0.1,0,0.3,0,0.4c0,0,0,0.1,0,0.1c-0.1,0.7,0,1.3,0,2c0,0.7,0,1.4,0.1,2.1c0,0.7,0,1.5,0,2.2
			c0,0.5,0,0.9,0,1.4c0,0.7,0,1.3,0,2c0,0.5,0,0.9,0,1.4c0,0.2,0.1,0.4,0,0.6c0,0.3,0,0.6,0,0.9c0,0.2,0,0.4,0,0.5c0,0,0,0.1,0,0.1
			c0.1,0.4,0,0.8,0,1.2c0,0.3,0.1,0.6,0.1,0.8c0,1,0,1.9,0,2.9C97,98.5,97,99.4,97,100.3C97,100.3,97,100.3,97,100.3"/>
		<path class="st2" d="M110.2,88.6c0,0.3,0,0.6,0,1c0,0.7,0,1.4,0.1,2.1c0,0.4,0.1,0.8,0,1.2c-0.1,0.8,0,1.7,0,2.5
			c0,0.4,0,0.8,0,1.2c0,0,0,0.1,0,0.1c0,0.1,0.1,0.3,0,0.4c-0.1,0.4,0,0.8,0,1.1c0,0.3,0,0.5,0,0.8c0,0.3,0,0.6,0,0.9
			c0,0.4,0,0.7,0,1.1c0.1,0.5,0,1,0,1.5c0,0.1,0,0.1,0,0.2c0.1,0.4,0,0.8,0,1.2c0,0.1-0.1,0.2-0.2,0.2c-0.1-0.1-0.1-0.2,0-0.4
			c0-0.5,0.1-1,0.1-1.6c0-0.5,0-1.1,0-1.6c0-1.2,0-2.5,0-3.7c0-0.8,0-1.6,0-2.5c0-0.9,0-1.7,0-2.6c0-0.4,0-0.8,0-1.2
			c0-0.4,0-0.9,0-1.3c0-0.1,0-0.1,0-0.2C110.1,88.9,110.1,88.7,110.2,88.6"/>
		<path class="st2" d="M102.3,80.3c0,0.1,0,0.2,0,0.3c0,1,0,2.1,0,3.1c0,0.4,0.1,0.9,0,1.3c0,0.4,0,0.8,0,1.2c0,0.4,0,0.7,0,1.1
			c0,0.2,0,0.4,0,0.6c0,0.2,0,0.5,0,0.7c0,0.1,0,0.2,0,0.4c0,0.4,0,0.7,0,1.1c0,0.4,0,0.8,0,1.2c0,0.2,0,0.3,0,0.5
			c0,0.8,0,1.6,0,2.4c0,0.4,0.1,0.7,0,1.1c-0.1,0.3,0,0.6,0,0.9c0,0.5,0,1,0,1.5c0,0.3,0,0.6,0.1,0.8c0,0,0,0,0,0.1
			c0,0.4,0,0.9,0,1.3c0,0.2,0,0.5,0,0.7c0,0,0,0.1-0.1,0.1c0,0,0-0.1,0-0.1c0-0.7,0-1.4,0-2.1c0-1.2-0.1-2.4-0.1-3.6
			c0-0.2,0-0.4,0-0.6c-0.1-1.7,0-3.4-0.1-5.2c0-0.5,0-1,0-1.4c0-0.4,0-0.8,0-1.2c0-0.5,0-1,0-1.4c0-1.4,0-2.7,0-4.1
			C102.2,80.6,102.2,80.4,102.3,80.3C102.3,80.3,102.3,80.3,102.3,80.3"/>
		<path class="st2" d="M108.2,85.2c0,0.2,0.1,0.4,0.1,0.6c-0.1,0.2-0.2,0.4-0.1,0.6c0,0.2,0,0.4,0,0.7c0,0.9,0,1.8,0,2.6
			c0,0.4,0,0.8,0,1.2c0,0.4,0,0.8,0,1.2c0,0.1,0,0.2,0,0.3c0,0.3,0,0.6,0,0.9c0,0.4,0.1,0.8,0,1.2c0,0.1,0,0.2,0,0.3
			c0,0.9,0,1.7,0,2.6c0,0,0,0.1,0,0.1c0,0.6,0,1.1,0.1,1.7c0,0.7-0.1,1.3,0,2c0,0,0,0.1-0.1,0.2c0-0.1-0.1-0.2-0.1-0.3
			c0-0.5,0-1,0-1.6c0-0.3,0-0.6,0-0.8c0-0.1,0-0.2,0-0.3c0-0.2,0-0.4,0-0.6c0-0.4,0-0.9,0-1.3c0-1.3,0-2.5,0-3.8c0-2,0-4,0-6
			c0-0.3,0-0.6,0-1c0-0.1,0-0.3,0-0.4C108,85.3,108.1,85.2,108.2,85.2"/>
		<path class="st2" d="M107.2,62.1c0-0.4,0-0.7-0.1-1c0,0,0,0-0.1,0c0,0.2,0,0.4-0.1,0.5c-0.1,0.2,0.1,0.4-0.1,0.6
			c-0.1,0-0.2-0.1-0.3-0.1c0-0.2,0.1-0.3,0.1-0.4c0-0.3,0-0.5,0-0.8c0.1,0,0.1-0.1,0.1-0.1c0.1,0,0.1,0,0.2,0c0,0.1,0.1,0.1,0.1,0.2
			c0.1-0.2,0.3-0.2,0.5-0.1c0.2,0.1,0.4,0.1,0.5,0.2c0.2,0.1,0.5,0.2,0.5,0.5c0,0.1-0.1,0.2-0.1,0.2c0,0.1-0.1,0.1-0.2,0.1
			c-0.3,0.1-0.6,0.1-0.9,0.2C107.3,62.1,107.3,62.1,107.2,62.1"/>
		<path class="st2" d="M106.5,63.2c0.1,0,0.3-0.1,0.4-0.1c0.1,0.2,0.1,0.3,0.1,0.4c0,0.3,0,0.6,0,0.9c0,0.3,0,0.5,0,0.8
			c0,0.1,0,0.2,0,0.3c0,0.1,0,0.2,0,0.2c0,0.3,0,0.6-0.1,0.9c0,0.2,0.1,0.3-0.1,0.5c0,0-0.1,0-0.2,0.1c0,0-0.1,0-0.1-0.1
			C106.5,65.8,106.5,64.5,106.5,63.2"/>
		<path class="st2" d="M103.6,63.4c0.1,0,0.2,0,0.3-0.1c0.1,0.3,0.1,0.5,0.1,0.7c0,0.3,0,0.5,0,0.8c0,0.1,0,0.3,0,0.4
			c0,0.5,0,1.1,0,1.6c0,0.2,0,0.3-0.1,0.5c0-0.1-0.1-0.1-0.1-0.2c0-0.1,0-0.1,0-0.2c0-1.1-0.1-2.1-0.1-3.2
			C103.6,63.7,103.6,63.6,103.6,63.4"/>
		<path class="st2" d="M107.3,79.3c0-0.1,0-0.2,0-0.3c0-0.6,0-1.2,0-1.8c0-1.2,0-2.4,0-3.6c0-0.3,0-0.6,0.1-1c0-0.1,0.1-0.1,0.1-0.1
			c0,0.3,0,0.5,0,0.8c0,0.2,0,0.4,0,0.7c0,0.4,0,0.8,0,1.1c0,0.6,0,1.2,0,1.9c0,0.7,0,1.3,0,2C107.4,79.1,107.4,79.2,107.3,79.3
			C107.4,79.3,107.4,79.3,107.3,79.3"/>
		<path class="st2" d="M98.5,66.6c-0.1,0-0.2,0-0.3,0c-0.1-0.4-0.1-0.8-0.1-1.3c0-0.3,0-0.5,0-0.8c0-0.2-0.1-0.4,0-0.5
			c0.1,0,0.1,0,0.2,0c0,0,0,0,0-0.1c-0.1,0-0.2,0-0.3-0.1c0-0.4-0.1-0.8,0-1.3c0.2,0.1,0.3,0.2,0.4,0.2c0,0.4-0.1,0.8-0.1,1.2
			c0,0.4,0,0.8,0,1.2C98.5,65.7,98.5,66.1,98.5,66.6"/>
		<path class="st2" d="M102.8,60.4c0,0.7-0.1,1.3-0.1,2c-0.2,0.2-0.3,0.2-0.5,0.1c-0.2-0.2-0.1-0.4-0.1-0.6c0-0.2,0.1-0.4,0.1-0.7
			c0-0.2-0.1-0.4-0.1-0.7C102.4,60.2,102.5,60.2,102.8,60.4"/>
		<path class="st2" d="M104.4,67.3c0,0-0.1-0.1-0.1-0.1c0,0,0-0.1,0-0.1c0-0.8-0.1-1.6-0.1-2.4c0-0.2,0-0.5-0.1-0.7
			c0-0.1,0-0.3,0-0.4c0.1,0,0.2-0.1,0.4-0.1c0,0.1,0.1,0.2,0.1,0.3c0,0.3,0,0.6-0.1,0.8c0,0,0,0.1,0,0.1c0.1,0.4,0,0.8,0,1.3
			c0,0.4,0,0.8,0,1.2C104.5,67.2,104.5,67.2,104.4,67.3C104.5,67.3,104.5,67.3,104.4,67.3"/>
		<path class="st2" d="M103.1,60.3c0.1,0.1,0.2,0.1,0.2,0.2c0-0.1,0.1-0.1,0.1-0.2c0.1,0.1,0.1,0.1,0.1,0.1c0,0.7,0,1.3,0,1.9
			c-0.2,0.1-0.3,0.1-0.4,0.1c-0.1-0.2-0.1-0.5-0.1-0.8c0-0.1,0-0.3,0-0.4c0-0.3,0-0.5-0.1-0.8C103,60.4,103,60.3,103.1,60.3"/>
		<path class="st2" d="M107.4,66.9c0,0,0-0.1,0-0.1c0-1.3-0.2-2.5-0.1-3.8c0.1,0,0.2,0,0.4,0C107.6,64.3,107.6,65.6,107.4,66.9
			C107.5,66.9,107.4,66.9,107.4,66.9"/>
		<path class="st2" d="M103.4,63.4c0,0.5,0,0.9,0,1.3s0,0.8,0,1.3c0,0.4,0,0.9,0,1.3c0,0,0,0-0.1,0c0,0-0.1-0.1-0.1-0.1
			c0-0.6-0.1-1.2-0.1-1.9c0-0.4,0-0.8,0-1.2c0-0.1,0-0.2,0-0.3C102.9,63.5,103,63.5,103.4,63.4"/>
		<path class="st2" d="M99.1,66.8C99,66.7,99,66.7,99,66.7c0-1.3-0.1-2.5-0.1-3.8c0.1,0,0.2,0,0.3,0.1
			C99.1,64.2,99.1,65.5,99.1,66.8"/>
		<path class="st2" d="M106.3,101.1c0-1.4,0-2.7-0.1-4.1c0-1.4,0-2.8,0.1-4.2c0,0.5,0,0.9,0,1.4c0,0.4,0,0.9,0,1.3
			c0,0.5,0.1,0.9,0,1.4c0.1,0.4,0,0.9,0.1,1.4c0,0.5,0,0.9,0,1.4C106.4,100.2,106.4,100.6,106.3,101.1
			C106.4,101.1,106.4,101.1,106.3,101.1"/>
		<path class="st2" d="M104.7,60.5c-0.1,0.6,0.1,1.2-0.1,1.8c-0.1,0-0.2,0-0.3,0c-0.1-0.3,0-0.6,0-1c0-0.3,0-0.6,0-0.9
			C104.5,60.3,104.5,60.3,104.7,60.5"/>
		<path class="st2" d="M106,63.3c0.1,0,0.2,0,0.3,0c0.1,0.3,0,0.7,0,1c0,0.3,0,0.7,0,1c0,0.3,0,0.6,0,1c0,0.3,0,0.6-0.1,0.9
			c-0.1-0.6-0.1-1.3-0.1-1.9C106.1,64.6,106,63.9,106,63.3"/>
		<path class="st2" d="M108.4,62.8c0.1-0.1,0.2-0.2,0.4-0.2c0.1,0.4,0,2.6-0.1,3.1C108.6,64.7,108.5,63.8,108.4,62.8"/>
		<path class="st2" d="M102.2,73.2c0,2.3,0.1,4.6,0.1,6.9c0,0,0,0-0.1,0.1c-0.1-0.2-0.1-0.4-0.1-0.6c0-0.3,0-0.6,0-0.9
			c0-0.6,0-1.1,0-1.7c0-0.5,0-1,0-1.4c0-0.3,0-0.7,0-1c0-0.2,0-0.5,0.1-0.7C102.2,73.6,102.2,73.4,102.2,73.2
			C102.2,73.2,102.2,73.2,102.2,73.2"/>
		<path class="st2" d="M105,60.4c0.1,0,0.1,0,0.2,0c0,0.2,0.1,0.3,0.1,0.5c0,0.4,0,0.8,0,1.2c0,0.1,0,0.3-0.2,0.2
			c-0.1-0.1-0.1-0.2-0.1-0.3c0-0.2,0-0.4,0-0.5c0-0.2,0-0.5,0-0.7C104.9,60.6,104.9,60.5,105,60.4"/>
		<path class="st2" d="M107.8,62.9c0.1,0,0.2,0,0.4,0c0,0.6,0,1.2-0.1,1.8c0,0.6-0.1,1.1-0.1,1.8c0-0.1,0-0.2,0-0.2
			c0-0.8-0.1-1.7-0.1-2.5C107.9,63.5,107.9,63.3,107.8,62.9"/>
		<path class="st2" d="M103.7,60.4c0.1-0.1,0.1-0.1,0.4-0.1c0,0.2,0,0.4,0,0.5c0,0.2,0,0.3,0,0.5c0,0.3,0,0.5,0,0.8
			c0,0.1-0.1,0.2-0.2,0.2c0,0,0-0.1,0-0.1c0-0.4,0-0.7,0-1.1C103.7,60.9,103.7,60.7,103.7,60.4"/>
		<path class="st2" d="M104.4,97.5c0,0.1,0,0.2,0,0.3c0,0.9,0,1.8,0,2.7c0,0,0,0.1,0,0.1c0-0.1,0-0.3,0-0.4c0-0.6,0-1.2,0-1.8
			c0-0.6,0-1.2,0-1.8c0-0.6,0-1.2,0-1.7c0-0.6,0-1.3,0-1.9c0-0.1,0-0.1,0.1-0.2c0,0.1,0,0.3,0,0.4c0,0.8,0,1.5,0,2.3
			c0,0.4,0,0.7,0,1.1c0,0.1,0,0.3,0,0.4C104.4,97.3,104.4,97.4,104.4,97.5C104.4,97.5,104.4,97.5,104.4,97.5"/>
		<path class="st2" d="M105.9,60.7c0,0.5-0.1,1-0.1,1.5c0,0,0,0.1-0.1,0.1c-0.1,0-0.1-0.1-0.2-0.1c0-0.6-0.1-1.1,0-1.7
			C105.8,60.5,105.8,60.5,105.9,60.7"/>
		<path class="st2" d="M110.1,88.2c-0.1-0.3-0.1-4.1,0-4.8c0,0.1,0,0.2,0,0.3c0,0.3,0,0.5,0.1,0.8c0,0.1,0,0.3,0,0.4
			c0,0.6,0,1.3,0,1.9C110.2,87.2,110.2,87.7,110.1,88.2C110.2,88.2,110.2,88.2,110.1,88.2"/>
		<path class="st2" d="M104.5,68.7c0.2,0,0.3,0,0.4,0c0,0.5-0.1,1,0,1.6c-0.1,0-0.2,0-0.3,0C104.6,69.8,104.4,69.3,104.5,68.7"/>
		<path class="st2" d="M104.4,92.8c-0.2-0.9-0.1-1.8-0.1-2.7c0-0.9,0-1.8,0-2.7c0-0.2,0-0.5,0.1-0.7
			C104.4,88.7,104.4,90.7,104.4,92.8"/>
		<path class="st2" d="M104.9,63.4c0.1,0,0.1-0.1,0.2-0.1c0,0.1,0.1,0.2,0.1,0.3c0,0.3,0,0.5,0,0.8c0,0.6-0.1,1.3-0.1,1.9
			c0,0.3,0,0.6,0,0.9C105,65.9,105,64.7,104.9,63.4"/>
		<path class="st2" d="M99.7,66.8c0-1.2,0-2.5,0-3.7c0.1,0,0.2,0,0.3-0.1c0,0.1,0,0.3,0,0.4c-0.1,0.5-0.1,1-0.1,1.5
			c0,0.6,0,1.2,0,1.8C99.8,66.7,99.7,66.8,99.7,66.8C99.7,66.8,99.7,66.8,99.7,66.8"/>
		<path class="st2" d="M102.5,66.9c0-0.4,0-0.7,0-1c-0.1-0.7,0-1.5-0.2-2.2c0-0.1,0-0.2,0.2-0.3c0.2,0.1,0.2,0.2,0.2,0.3
			c0,0.2,0,0.3,0,0.5c0,0.5-0.1,1.1,0,1.6C102.6,66.2,102.5,66.5,102.5,66.9"/>
		<path class="st2" d="M102.9,101.8c0.1,0,0.2-0.1,0.3-0.1c0.2,0.3,0.2,0.9,0,1.2c-0.1,0-0.2,0-0.3,0
			C102.8,102.5,102.9,102.2,102.9,101.8"/>
		<path class="st2" d="M104,101.8c0.1,0.4,0.1,0.7,0,1.1c-0.1,0-0.2,0-0.4,0c-0.2-0.4-0.1-0.7,0-1.1
			C103.8,101.8,103.9,101.8,104,101.8"/>
		<path class="st2" d="M97.1,101.7c0,0.1,0.1,0.2,0.1,0.2c-0.1,0-0.1,0-0.1,0.1c0,0.3,0.1,0.5,0,0.8c0,0.2,0,0.5,0,0.7
			c0,0.2,0.1,0.4,0.1,0.6c-0.1,0.1-0.1,0.1-0.2,0c-0.1-0.1-0.1-0.3-0.1-0.4c0-0.2,0-0.5,0-0.7c0-0.1,0-0.2,0-0.2
			c0.2-0.3,0.1-0.5,0.1-0.8C97,101.8,97,101.8,97.1,101.7C97.1,101.7,97.1,101.7,97.1,101.7"/>
		<path class="st2" d="M108.6,103.4c0-0.4-0.1-0.9,0-1.3c0.1,0,0.2,0,0.2,0c0,0,0,0.1,0,0.1c0,0.2,0,0.5,0,0.7c0,0.1,0,0.2,0,0.3
			C108.9,103.4,108.8,103.4,108.6,103.4"/>
		<path class="st2" d="M99.4,68.8c0.2-0.1,0.2-0.1,0.4,0c0,0.4,0,0.8-0.1,1.2c-0.1,0-0.1,0-0.2,0C99.4,69.6,99.4,69.2,99.4,68.8"/>
		<path class="st2" d="M96.7,73.7c-0.1-0.9,0-1.8-0.3-2.8c0.3,0.3,0.7,0.1,1,0.4c-0.3,0.1-0.5-0.1-0.7-0.1
			C96.9,72,96.7,72.8,96.7,73.7"/>
		<path class="st2" d="M100.3,70.1c-0.2,0-0.2-0.1-0.2-0.2c0-0.4-0.1-0.8,0-1.2c0.1,0,0.1,0,0.2,0C100.4,69.2,100.4,69.6,100.3,70.1
			"/>
		<path class="st2" d="M101.1,95.9c0,0.2,0,0.4,0,0.5c0,1.1,0,2.3,0,3.4c0,0.3,0,0.5-0.1,0.8c0-0.7,0-1.4,0-2.1c0-0.6,0-1.3,0-1.9
			c0-0.2,0-0.4-0.1-0.6C101,96,101,96,101.1,95.9C101,95.9,101,95.9,101.1,95.9"/>
		<path class="st2" d="M107.4,79.4c0.1,0.3,0,0.7,0,1c0,0.3-0.1,0.7,0,1c0,0.3,0.1,0.7,0,1C107.3,82.1,107.3,79.7,107.4,79.4"/>
		<path class="st2" d="M104.7,102.9c-0.1,0-0.2-0.1-0.3-0.1c0-0.3,0-0.6,0-1c0.1,0,0.2,0,0.3-0.1
			C104.7,102.1,104.7,102.5,104.7,102.9"/>
		<path class="st2" d="M108.4,103.1c-0.1,0-0.2,0-0.4,0c0-0.1,0.1-0.2,0.1-0.2c-0.1-0.2-0.2-0.5,0-0.8c0.1,0,0.1,0,0.2,0
			C108.5,102.4,108.3,102.7,108.4,103.1"/>
		<path class="st2" d="M106.6,71.5c0.2,0,0.3-0.1,0.5-0.1c0.5,0,0.9-0.1,1.3-0.2c0.2-0.1,0.5,0,0.7,0
			C108.4,71.4,107.5,71.5,106.6,71.5C106.6,71.5,106.6,71.5,106.6,71.5"/>
		<path class="st2" d="M101,87.9c0,1.5,0,3.1,0,4.6c0,0,0,0-0.1,0c0-0.8,0-1.5,0-2.3S100.9,88.7,101,87.9"/>
		<path class="st2" d="M104.1,68.7c0,0.1,0.1,0.2,0.1,0.3c0,0.4-0.1,0.8-0.1,1.3c-0.2-0.2-0.1-0.4-0.1-0.5c0-0.2,0-0.4,0-0.6
			C103.9,69.1,103.9,68.9,104.1,68.7"/>
		<path class="st2" d="M99.9,102.9c-0.1,0-0.1,0.1-0.2,0.1c-0.1,0-0.1,0-0.2,0c0-0.3-0.1-0.7,0.1-1C100,102.2,99.9,102.5,99.9,102.9
			"/>
		<path class="st2" d="M101.1,101.8c0.1,0.4,0.2,0.8,0.1,1.2c-0.1,0-0.2,0-0.3,0c0-0.2,0-0.4,0.1-0.5c0-0.1,0-0.2,0-0.4
			C100.9,102,101,101.9,101.1,101.8"/>
		<g>
			<defs>
				<rect id="SVGID_3_" x="103.1" y="104.1" width="2" height="2"/>
			</defs>
			<clipPath id="SVGID_4_">
				<use xlink:href="#SVGID_3_"  style="overflow:visible;"/>
			</clipPath>
			<g class="st3">
				<path class="st2" d="M104.1,105.3c-0.1,0-0.2,0-0.3,0c-0.2-0.2-0.1-0.4-0.1-0.5c0.1-0.2,0.2-0.2,0.4-0.2
					C104.2,104.8,104,105,104.1,105.3"/>
			</g>
		</g>
		<g>
			<defs>
				<rect id="SVGID_5_" x="102.1" y="104.1" width="2" height="2"/>
			</defs>
			<clipPath id="SVGID_6_">
				<use xlink:href="#SVGID_5_"  style="overflow:visible;"/>
			</clipPath>
			<g class="st4">
				<path class="st2" d="M103.5,104.9c0,0.1-0.1,0.2-0.1,0.4c-0.1,0-0.2,0-0.3,0c-0.1-0.2-0.1-0.4-0.1-0.7c0.1,0,0.2,0,0.3,0
					C103.4,104.7,103.4,104.8,103.5,104.9"/>
			</g>
		</g>
		<path class="st2" d="M98.5,102.1c0,0.3,0.1,0.6,0.1,0.9c-0.1,0.1-0.2,0.2-0.3,0.1c0-0.2,0-0.4,0-0.7
			C98.2,102.3,98.3,102.2,98.5,102.1C98.4,102.1,98.4,102.1,98.5,102.1"/>
		<path class="st2" d="M99.1,102c0.1,0.3,0.2,0.5,0.1,0.9c-0.1,0-0.2,0-0.3,0c0-0.1,0-0.1,0-0.1c0-0.1,0-0.3,0-0.4
			C98.9,102.3,98.9,102.1,99.1,102"/>
		<path class="st2" d="M106.4,62.1c-0.1,0-0.1,0-0.1,0c0-0.2,0-0.5,0-0.8c-0.1-0.2-0.1-0.3,0-0.6c0.2,0,0.3,0,0.2,0.2
			c-0.1,0.4,0,0.7,0,1.1C106.4,62,106.4,62,106.4,62.1"/>
		<path class="st2" d="M98.3,100.5c0-0.6,0-1.1,0-1.7c0-0.6-0.1-1.1,0-1.7C98.4,98.3,98.4,99.4,98.3,100.5
			C98.4,100.5,98.3,100.5,98.3,100.5"/>
		<path class="st2" d="M100.4,102.7c0.1,0.1,0.1,0.1,0.1,0.2c0,0-0.1,0.1-0.1,0.1c0,0-0.1,0-0.1-0.1c0-0.1,0-0.2,0-0.4
			c0-0.2,0-0.4,0-0.6c0,0,0.1-0.1,0.1-0.2c0.1,0.1,0.1,0.2,0.1,0.3c0,0-0.1,0.1-0.1,0.1C100.6,102.4,100.6,102.5,100.4,102.7"/>
		<g>
			<defs>
				<rect id="SVGID_7_" x="104.1" y="104.1" width="1" height="2"/>
			</defs>
			<clipPath id="SVGID_8_">
				<use xlink:href="#SVGID_7_"  style="overflow:visible;"/>
			</clipPath>
			<g class="st5">
				<path class="st2" d="M104.4,105.1c0-0.2,0-0.3,0-0.5c0.1,0,0.1,0,0.2-0.1c0.1,0.1,0.2,0.5,0,0.7c0,0-0.1,0-0.1,0
					C104.5,105.2,104.5,105.2,104.4,105.1"/>
			</g>
		</g>
		<path class="st2" d="M101.8,64.9c-0.1-0.2-0.2-1.4-0.1-1.5c0.2,0.1,0.1,0.3,0.1,0.5c0,0.2,0,0.4,0,0.5
			C101.8,64.6,101.8,64.7,101.8,64.9"/>
		<path class="st2" d="M100.9,68.8c0,0.4,0.1,0.9,0,1.3c-0.2-0.2-0.1-0.5-0.1-0.7S100.8,69,100.9,68.8
			C100.8,68.8,100.8,68.8,100.9,68.8"/>
		<path class="st2" d="M108.7,82.9c0-0.9,0-1.7,0-2.6c0,0,0,0,0,0C108.7,81.2,108.7,82,108.7,82.9C108.7,82.9,108.7,82.9,108.7,82.9
			"/>
		<path class="st2" d="M105.7,102.8c0,0-0.1-0.1-0.1-0.1c0-0.3-0.1-0.6,0.1-0.9C105.9,102.2,105.9,102.5,105.7,102.8
			C105.8,102.8,105.8,102.8,105.7,102.8"/>
		<path class="st2" d="M98.5,104c0.1,0.1,0.1,0.3,0.1,0.4c0,0-0.1,0.1-0.1,0.2c-0.3-0.1-0.3-0.1-0.2-0.6c0,0,0.1,0,0.1,0
			C98.4,104,98.5,104,98.5,104"/>
		<path class="st2" d="M99.3,68.8c0,0.2,0,0.3-0.1,0.4c0,0.1-0.1,0.3-0.1,0.5c-0.1-0.4-0.1-0.7-0.2-0.9
			C99.1,68.6,99.2,68.7,99.3,68.8"/>
		<path class="st2" d="M100.4,65.6c0-0.8-0.1-1.5,0-2.3c0,0,0.1,0,0.1,0c0,0.4,0,0.8,0,1.1C100.4,64.8,100.4,65.2,100.4,65.6"/>
		<path class="st2" d="M109.4,102.2c0.1,0,0.1,0,0.2,0c0.1,0.3,0.1,0.6-0.1,0.9C109.3,102.8,109.4,102.5,109.4,102.2"/>
		<path class="st2" d="M106.3,102.8c0-0.3,0-0.6,0-0.8c0.1,0,0.1,0,0.2-0.1c0,0.3,0,0.5,0.1,0.7
			C106.5,102.7,106.5,102.8,106.3,102.8"/>
		<g>
			<defs>
				<rect id="SVGID_9_" x="100.1" y="104.1" width="2" height="2"/>
			</defs>
			<clipPath id="SVGID_10_">
				<use xlink:href="#SVGID_9_"  style="overflow:visible;"/>
			</clipPath>
			<g class="st6">
				<path class="st2" d="M101.2,105.2c-0.1-0.1-0.2-0.1-0.2-0.2c-0.1-0.1,0-0.4,0.1-0.6C101.3,104.6,101.3,104.7,101.2,105.2"/>
			</g>
		</g>
		<path class="st2" d="M105.1,101.7c0,0.4,0,0.7,0.1,1c0,0-0.1,0-0.1,0c0,0-0.1,0-0.1-0.1C105,102,105,101.9,105.1,101.7"/>
		<path class="st2" d="M99.7,104.3c0.1,0,0.1,0,0.2,0c0,0.2,0,0.4,0,0.6c-0.2,0.1-0.2,0-0.3-0.1C99.6,104.7,99.7,104.5,99.7,104.3"
			/>
		<path class="st2" d="M99,104.2c0.3,0.1,0.3,0.3,0.2,0.6C98.9,104.6,98.9,104.6,99,104.2"/>
		<path class="st2" d="M106.3,90.4c0,0.7,0,1.4,0,2.1c0,0,0,0,0,0C106.3,91.8,106.3,91.1,106.3,90.4
			C106.3,90.4,106.3,90.4,106.3,90.4"/>
		<path class="st2" d="M108,72.6c0,0.5,0,1,0,1.5c-0.2-0.2-0.1-0.3-0.1-0.5C108,73.3,108,72.9,108,72.6C108,72.6,108,72.6,108,72.6"
			/>
		<path class="st2" d="M108.1,77.7c0-0.5-0.1-0.9-0.1-1.4c0-0.1,0-0.2,0.1-0.3C108.1,76.6,108.1,77.1,108.1,77.7
			C108.1,77.7,108.1,77.7,108.1,77.7"/>
		<path class="st2" d="M108.9,104.5c-0.1,0-0.1,0-0.2,0c-0.1-0.1,0-0.3,0-0.4c0.1,0,0.1-0.1,0.2-0.1c0.1,0.1,0.1,0.1,0.2,0.2
			C109,104.3,108.9,104.4,108.9,104.5"/>
		<path class="st2" d="M96.7,75.4c0,0.5,0.1,1,0.1,1.5c0,0,0,0.1-0.1,0.1C96.7,76.9,96.6,75.9,96.7,75.4"/>
		<path class="st2" d="M107.7,103c-0.1-0.3-0.2-0.7-0.1-1C107.7,102.2,107.8,102.5,107.7,103"/>
		<g>
			<defs>
				<rect id="SVGID_11_" x="102.1" y="104.1" width="1" height="2"/>
			</defs>
			<clipPath id="SVGID_12_">
				<use xlink:href="#SVGID_11_"  style="overflow:visible;"/>
			</clipPath>
			<g class="st7">
				<path class="st2" d="M102.6,104.5c0.2,0.3,0.2,0.5,0,0.8C102.5,105,102.5,104.8,102.6,104.5"/>
			</g>
		</g>
		<g>
			<defs>
				<rect id="SVGID_13_" x="100.1" y="104.1" width="1" height="2"/>
			</defs>
			<clipPath id="SVGID_14_">
				<use xlink:href="#SVGID_13_"  style="overflow:visible;"/>
			</clipPath>
			<g class="st8">
				<path class="st2" d="M100.5,105.1c-0.3-0.2-0.3-0.5,0-0.7C100.6,104.6,100.5,104.8,100.5,105.1"/>
			</g>
		</g>
		<path class="st2" d="M107.5,104.8c0-0.2,0-0.3,0.1-0.4c0.1,0,0.1-0.1,0.2-0.1c0.1,0.2,0.1,0.3,0,0.5
			C107.7,104.8,107.6,104.8,107.5,104.8"/>
		<path class="st2" d="M108,74.2c0,0.2,0,0.4,0.1,0.5c0,0,0,0,0,0c0,0.1,0,0.2-0.1,0.4c-0.2-0.1-0.1-0.3-0.1-0.5
			C107.9,74.5,107.9,74.4,108,74.2"/>
		<path class="st2" d="M101.1,66.2c0-0.5-0.1-1,0-1.6C101.1,65.2,101.1,65.7,101.1,66.2"/>
		<path class="st2" d="M108.1,104.6c0-0.2-0.1-0.4,0.1-0.5c0.1,0.1,0.2,0.2,0.1,0.4C108.4,104.6,108.3,104.7,108.1,104.6"/>
		<path class="st2" d="M101.1,63.3c0,0.4,0,0.8,0,1.2c0,0,0,0-0.1,0c0-0.3-0.1-0.7-0.1-1C101,63.4,101,63.4,101.1,63.3"/>
		<path class="st2" d="M108.8,84.1c0,0.5,0,0.9,0,1.4c0,0,0,0,0,0c0,0,0,0,0,0c0,0,0-0.1,0-0.1C108.7,84.9,108.7,84.5,108.8,84.1
			C108.7,84.1,108.7,84.1,108.8,84.1"/>
		<path class="st2" d="M102.6,101.8c0,0.3,0.1,0.6,0,1C102.6,102.5,102.4,102.2,102.6,101.8"/>
		<path class="st2" d="M104.3,83.3c0,0.5,0,1,0,1.5c0,0,0,0,0,0C104.3,84.3,104.3,83.8,104.3,83.3C104.3,83.3,104.3,83.3,104.3,83.3
			"/>
		<g>
			<defs>
				<rect id="SVGID_15_" x="105.1" y="104.1" width="1" height="2"/>
			</defs>
			<clipPath id="SVGID_16_">
				<use xlink:href="#SVGID_15_"  style="overflow:visible;"/>
			</clipPath>
			<g class="st9">
				<path class="st2" d="M105.8,104.5c0,0,0.1,0,0.1,0c0,0.2,0,0.3,0,0.5C105.7,105,105.7,104.9,105.8,104.5"/>
			</g>
		</g>
		<path class="st2" d="M98.3,95.6c0.1,0.2,0,0.5,0,0.8c0,0-0.1-0.1-0.1-0.1C98.3,96,98.3,95.8,98.3,95.6
			C98.3,95.6,98.3,95.6,98.3,95.6"/>
		<path class="st2" d="M97.7,102.3c0.2,0.2,0.1,0.5,0.1,0.7C97.7,102.8,97.7,102.7,97.7,102.3"/>
		<path class="st2" d="M101,94.8c0-0.2-0.1-0.5,0-0.7C101.1,94.4,101.1,94.6,101,94.8"/>
		<path class="st2" d="M98.3,93.9c0,0.4,0,0.8,0,1.3c0,0,0,0,0,0C98.3,94.7,98.3,94.3,98.3,93.9C98.3,93.9,98.3,93.9,98.3,93.9"/>
		<path class="st2" d="M109.6,104.2c-0.1,0-0.1,0-0.1,0c0-0.2,0-0.3,0-0.5C109.7,103.9,109.7,103.9,109.6,104.2"/>
		<path class="st2" d="M102.9,104.1c0.2-0.2,0.3-0.2,0.5-0.2c0,0.1,0,0.1,0,0.2C103.2,104.1,103.1,104.1,102.9,104.1"/>
		<path class="st2" d="M104.2,75.3c0,0.4,0,0.8,0,1.2c0,0,0,0,0,0c0,0,0-0.1,0-0.1C104.2,76,104.2,75.7,104.2,75.3
			C104.2,75.3,104.2,75.3,104.2,75.3"/>
		<path class="st2" d="M104.1,103.2c-0.1,0.3-0.1,0.3-0.4,0.1C103.8,103.2,103.8,103.2,104.1,103.2"/>
		<path class="st2" d="M98.3,93.2c0-0.4,0-0.8,0-1.1C98.4,92.4,98.3,92.8,98.3,93.2"/>
		<path class="st2" d="M102.8,103.4c0.1-0.1,0.3-0.2,0.4-0.2c0,0,0.1,0.1,0.1,0.2C103.2,103.4,103,103.4,102.8,103.4"/>
		<path class="st2" d="M106.9,102.8c-0.2-0.3,0-0.5-0.1-0.7c0,0,0,0,0.1,0c0,0,0.1,0.1,0.1,0.1C106.9,102.3,106.9,102.5,106.9,102.8
			"/>
		<path class="st2" d="M108.3,103.2c0.1,0.3,0.1,0.3-0.2,0.4c0-0.1,0-0.1,0-0.2C108.1,103.3,108.2,103.2,108.3,103.2"/>
		<g>
			<defs>
				<rect id="SVGID_17_" x="104.1" y="104.1" width="2" height="2"/>
			</defs>
			<clipPath id="SVGID_18_">
				<use xlink:href="#SVGID_17_"  style="overflow:visible;"/>
			</clipPath>
			<g class="st10">
				<path class="st2" d="M105.2,105.2c-0.2-0.2-0.1-0.4-0.1-0.7C105.3,104.8,105.2,105,105.2,105.2"/>
			</g>
		</g>
		<path class="st2" d="M101,93.7c0-0.3,0-0.6,0-1c0,0,0,0,0,0c0,0.1,0,0.2,0,0.3C101,93.2,101,93.4,101,93.7
			C101,93.7,101,93.7,101,93.7"/>
		<path class="st2" d="M106.3,86c0,0.3,0,0.6,0,0.9c0,0,0,0,0,0c0-0.1,0-0.3,0-0.4C106.2,86.3,106.2,86.2,106.3,86
			C106.2,86,106.2,86,106.3,86"/>
		<path class="st2" d="M104.6,103.2c0,0.1,0,0.1,0,0.2c-0.1,0.1-0.2,0.1-0.3,0C104.4,103.2,104.5,103.1,104.6,103.2"/>
		<path class="st2" d="M109.5,100.1c0,0.3,0,0.5,0,0.8c0,0,0,0,0,0C109.5,100.6,109.5,100.3,109.5,100.1
			C109.5,100.1,109.5,100.1,109.5,100.1"/>
		<path class="st2" d="M108.7,77.7c0,0.3,0,0.5,0,0.8c-0.1-0.1,0-0.3,0-0.4C108.6,78,108.6,77.9,108.7,77.7
			C108.6,77.7,108.7,77.7,108.7,77.7"/>
		<path class="st2" d="M110,77.3c0,0.3,0,0.5,0,0.8c0,0,0,0,0,0C110,77.8,110,77.6,110,77.3C110,77.3,110,77.3,110,77.3"/>
		<path class="st2" d="M107.3,83.1c0.1-0.2-0.1-0.3,0.1-0.5C107.4,82.7,107.4,82.9,107.3,83.1C107.4,83.1,107.4,83.1,107.3,83.1"/>
		<path class="st2" d="M106.3,71.6c-0.2,0-0.4,0-0.6,0C106,71.4,106,71.4,106.3,71.6"/>
		<path class="st2" d="M107,105c-0.1-0.2-0.1-0.3-0.1-0.5C107.1,104.7,107,104.8,107,105"/>
		<path class="st2" d="M106.5,104.6c0,0.1,0,0.2,0,0.4C106.3,104.7,106.3,104.7,106.5,104.6"/>
		<path class="st2" d="M108.8,91.3c0,0.3,0,0.5,0,0.6C108.8,91.7,108.6,91.5,108.8,91.3"/>
		<path class="st2" d="M103.6,104c0.1-0.2,0.2-0.1,0.4,0C103.9,104.1,103.8,104.1,103.6,104"/>
		<path class="st2" d="M106.3,88.9c-0.1-0.1-0.1-0.3,0-0.4C106.3,88.6,106.3,88.7,106.3,88.9"/>
		<path class="st2" d="M103.4,69c0,0.2,0,0.4,0,0.7c0,0,0,0,0,0C103.3,69.4,103.3,69.2,103.4,69C103.3,69,103.3,69,103.4,69"/>
		<path class="st2" d="M101.6,84.4c0-0.2,0-0.4,0-0.5C101.6,84,101.8,84.1,101.6,84.4"/>
		<path class="st2" d="M96.7,75c0-0.2,0-0.3,0-0.5C96.9,74.7,96.7,74.8,96.7,75"/>
		<path class="st2" d="M98.3,89.5c0-0.2,0-0.4,0-0.7c0,0,0,0,0,0C98.3,89,98.3,89.3,98.3,89.5C98.3,89.5,98.3,89.5,98.3,89.5"/>
		<path class="st2" d="M107.3,83.6c0-0.1,0-0.2,0-0.4C107.5,83.3,107.4,83.4,107.3,83.6C107.4,83.6,107.4,83.6,107.3,83.6"/>
		<path class="st2" d="M108.8,90c0-0.2,0-0.4,0-0.6c0,0,0,0,0,0C108.8,89.6,108.8,89.8,108.8,90C108.8,90,108.8,90,108.8,90"/>
		<path class="st2" d="M106.2,83.3c0,0.2,0,0.4,0,0.6c0,0,0,0,0,0C106.2,83.7,106.2,83.5,106.2,83.3
			C106.2,83.3,106.2,83.3,106.2,83.3"/>
		<path class="st2" d="M109.3,82c0-0.2,0-0.3,0-0.5c0,0,0,0,0,0C109.3,81.7,109.3,81.9,109.3,82C109.3,82.1,109.3,82.1,109.3,82"/>
		<path class="st2" d="M108.8,99.4c-0.1-0.2-0.1-0.3,0-0.4C108.8,99.1,108.8,99.2,108.8,99.4"/>
		<path class="st2" d="M108.7,79.4c-0.1-0.2-0.1-0.3,0-0.5C108.7,79.2,108.7,79.3,108.7,79.4"/>
		<path class="st2" d="M101,86.8c0-0.2,0-0.3,0-0.5c0,0,0,0,0,0C101,86.5,101,86.7,101,86.8C101,86.8,101,86.8,101,86.8"/>
		<path class="st2" d="M108.7,83.3c0,0.2,0,0.4,0,0.5c0,0,0,0,0,0C108.7,83.6,108.7,83.5,108.7,83.3
			C108.7,83.3,108.7,83.3,108.7,83.3"/>
		<path class="st2" d="M98.3,91.5c0-0.2,0-0.4,0-0.5c0,0,0,0,0,0C98.3,91.1,98.3,91.3,98.3,91.5C98.3,91.5,98.3,91.5,98.3,91.5"/>
		<path class="st2" d="M106.5,103.7c0,0.2,0,0.2-0.1,0.2C106.3,103.8,106.4,103.7,106.5,103.7"/>
		<path class="st2" d="M108.8,94.4c0,0.2,0,0.3,0,0.5c0,0,0,0,0,0C108.8,94.7,108.8,94.5,108.8,94.4
			C108.8,94.4,108.8,94.4,108.8,94.4"/>
		<path class="st2" d="M106.2,77.2c0-0.2,0-0.3,0-0.5c0,0,0,0,0,0C106.2,76.9,106.2,77.1,106.2,77.2
			C106.2,77.2,106.2,77.2,106.2,77.2"/>
		<path class="st2" d="M97.5,82.8c0-0.2,0-0.3,0-0.5c0,0,0,0,0,0C97.6,82.5,97.6,82.6,97.5,82.8C97.5,82.8,97.5,82.8,97.5,82.8"/>
		<path class="st2" d="M102.5,100.9c0-0.1,0-0.2,0-0.3C102.6,100.7,102.5,100.8,102.5,100.9"/>
		<path class="st2" d="M110,78.9c0-0.1,0-0.3,0-0.5C110,78.6,110.1,78.8,110,78.9C110.1,78.9,110,78.9,110,78.9"/>
		<path class="st2" d="M107.4,84.1c0,0.1,0,0.2,0.1,0.4C107.3,84.3,107.3,84.2,107.4,84.1L107.4,84.1"/>
		<path class="st2" d="M109.3,81.2c0-0.2,0-0.3,0-0.5c0,0,0,0,0,0C109.3,80.9,109.3,81,109.3,81.2C109.3,81.2,109.3,81.2,109.3,81.2
			"/>
		<path class="st2" d="M101,87.3c0,0.2,0,0.3,0,0.5c0-0.1,0-0.1,0-0.1C101,87.6,101,87.4,101,87.3C101,87.3,101,87.3,101,87.3"/>
		<path class="st2" d="M100.9,83.5c0,0.1,0.1,0.3,0.1,0.4c0,0,0,0-0.1,0C100.9,83.8,100.9,83.7,100.9,83.5
			C100.9,83.5,100.9,83.5,100.9,83.5"/>
		<path class="st2" d="M106.1,76.3c0-0.1,0-0.3,0-0.4c0,0,0,0,0,0C106.2,76,106.2,76.2,106.1,76.3C106.2,76.3,106.2,76.3,106.1,76.3
			"/>
		<path class="st2" d="M108.8,100c0-0.1,0-0.3,0-0.4c0,0,0,0,0,0C108.9,99.7,108.9,99.8,108.8,100C108.9,100,108.8,100,108.8,100"/>
		<path class="st2" d="M106.2,85.2c0-0.1,0-0.2,0-0.4c0,0,0,0,0,0C106.2,85,106.2,85.1,106.2,85.2C106.2,85.3,106.2,85.2,106.2,85.2
			"/>
		<path class="st2" d="M109.3,73.9c0-0.1,0-0.3,0-0.4c0,0,0,0,0,0C109.3,73.6,109.3,73.7,109.3,73.9
			C109.3,73.9,109.3,73.9,109.3,73.9"/>
		<path class="st2" d="M101.6,85.8c0.1,0.1,0.1,0.2,0,0.3C101.5,86,101.6,85.9,101.6,85.8L101.6,85.8"/>
		<path class="st2" d="M110,77.1c0-0.1,0-0.3,0-0.4c0,0,0,0,0,0C110,76.9,110,77,110,77.1C110,77.1,110,77.1,110,77.1"/>
		<path class="st2" d="M108.8,90.7c0,0.1,0,0.3,0,0.4c0,0,0,0,0,0C108.8,90.9,108.8,90.8,108.8,90.7
			C108.8,90.7,108.8,90.7,108.8,90.7"/>
		<path class="st2" d="M98.3,90.5c0,0.1,0,0.2,0,0.3c0,0-0.1,0-0.1-0.1C98.2,90.6,98.3,90.6,98.3,90.5
			C98.3,90.5,98.3,90.5,98.3,90.5"/>
		<path class="st2" d="M106.2,87.9c0-0.1,0.1-0.2,0.1-0.3c0,0,0,0,0,0C106.3,87.7,106.3,87.8,106.2,87.9
			C106.3,87.9,106.2,87.9,106.2,87.9"/>
		<path class="st2" d="M109.3,79.1c0-0.1,0-0.2,0-0.3c0,0,0,0,0,0C109.3,78.9,109.3,79,109.3,79.1C109.3,79.1,109.3,79.1,109.3,79.1
			"/>
		<path class="st2" d="M104.3,73.3c0,0.1,0,0.2,0,0.3c0,0,0,0-0.1,0C104.2,73.5,104.2,73.4,104.3,73.3
			C104.2,73.3,104.2,73.3,104.3,73.3"/>
		<path class="st2" d="M104.3,85.3c0-0.1,0-0.2,0-0.3c0,0,0,0,0,0C104.3,85.1,104.3,85.2,104.3,85.3
			C104.3,85.3,104.3,85.3,104.3,85.3"/>
		<path class="st2" d="M106.2,84.5c0-0.1,0-0.2,0-0.3c0,0,0,0,0,0C106.3,84.3,106.3,84.4,106.2,84.5
			C106.3,84.5,106.2,84.5,106.2,84.5"/>
		<path class="st2" d="M109.4,95.4c0-0.1,0-0.2,0-0.3c0,0,0,0,0,0C109.4,95.2,109.4,95.3,109.4,95.4
			C109.4,95.4,109.4,95.4,109.4,95.4"/>
		<path class="st2" d="M108.8,95.1c0.1,0.1,0.1,0.1,0,0.2C108.8,95.2,108.8,95.2,108.8,95.1C108.8,95.1,108.8,95.1,108.8,95.1"/>
		<path class="st2" d="M102.6,103.4c0.1-0.1,0.1-0.1,0.2,0C102.7,103.4,102.6,103.4,102.6,103.4"/>
		<path class="st2" d="M107.7,103.4c0,0.1,0,0.1,0,0.2c0,0,0,0-0.1,0C107.7,103.5,107.7,103.5,107.7,103.4
			C107.7,103.4,107.7,103.4,107.7,103.4"/>
		<path class="st2" d="M97.6,84c0,0.1,0,0.1,0,0.2c0,0,0,0-0.1,0C97.5,84.1,97.5,84,97.6,84C97.5,84,97.6,84,97.6,84"/>
		<path class="st2" d="M98.4,101.2c0,0.1,0,0.2,0,0.3c0,0,0,0,0,0C98.4,101.5,98.4,101.3,98.4,101.2
			C98.4,101.2,98.4,101.2,98.4,101.2"/>
		<path class="st2" d="M101.4,69.5c0,0.1,0,0.2,0,0.3c0,0,0,0,0,0C101.4,69.7,101.4,69.6,101.4,69.5
			C101.4,69.5,101.4,69.5,101.4,69.5"/>
		<path class="st2" d="M106.8,103.8c0-0.1,0-0.1,0-0.2C107,103.7,107,103.7,106.8,103.8"/>
		<path class="st2" d="M105.9,103.8c0,0.1,0,0.1,0,0.2c0,0,0,0-0.1,0C105.8,103.9,105.8,103.9,105.9,103.8
			C105.8,103.8,105.9,103.8,105.9,103.8"/>
		<path class="st2" d="M101,85.4c0,0.1,0,0.2,0,0.3c0,0,0,0,0,0C101,85.5,101,85.4,101,85.4C101,85.4,101,85.4,101,85.4"/>
		<path class="st2" d="M104.3,85.8c0-0.1,0-0.2,0-0.3c0,0,0,0,0,0C104.3,85.7,104.3,85.7,104.3,85.8
			C104.3,85.8,104.3,85.8,104.3,85.8"/>
		<path class="st2" d="M107.2,69.3c0,0,0,0.1,0.1,0.1c0,0,0,0.1,0,0.1C107.1,69.4,107.2,69.3,107.2,69.3L107.2,69.3"/>
		<path class="st2" d="M104.3,86.1c0,0.1,0,0.2,0,0.2c0,0,0,0,0,0C104.3,86.3,104.3,86.2,104.3,86.1
			C104.3,86.1,104.3,86.1,104.3,86.1"/>
		<path class="st2" d="M101.6,79c0,0.1,0,0.2,0,0.3c0,0,0,0,0,0C101.6,79.1,101.6,79,101.6,79C101.6,79,101.6,79,101.6,79"/>
		<path class="st2" d="M106.2,79.9c0-0.1,0-0.2,0-0.3c0,0,0,0,0,0C106.2,79.7,106.2,79.8,106.2,79.9
			C106.2,79.9,106.2,79.9,106.2,79.9"/>
		<path class="st2" d="M101,95.1c0,0,0,0.1,0,0.1c0,0,0,0-0.1,0C101,95.2,101,95.2,101,95.1C101,95.1,101,95.1,101,95.1"/>
		<path class="st2" d="M109.4,98.7c0-0.1,0-0.2,0-0.3c0,0,0,0,0,0C109.4,98.6,109.4,98.6,109.4,98.7
			C109.4,98.7,109.4,98.7,109.4,98.7"/>
		<path class="st2" d="M108.9,100.2c0,0.1,0,0.1,0,0.1c0,0,0,0,0,0C108.8,100.3,108.8,100.3,108.9,100.2
			C108.8,100.2,108.8,100.2,108.9,100.2"/>
		<path class="st2" d="M101.6,83.6c0-0.1,0-0.1,0-0.2c0,0,0,0,0,0C101.6,83.5,101.6,83.5,101.6,83.6
			C101.6,83.6,101.6,83.6,101.6,83.6"/>
		<path class="st2" d="M97.5,80.7c0-0.1,0-0.1,0-0.2c0,0,0,0,0,0C97.6,80.5,97.6,80.6,97.5,80.7C97.5,80.7,97.5,80.7,97.5,80.7"/>
		<path class="st2" d="M102.7,69.7C102.7,69.7,102.6,69.6,102.7,69.7C102.7,69.6,102.7,69.6,102.7,69.7
			C102.7,69.6,102.7,69.6,102.7,69.7C102.7,69.7,102.7,69.7,102.7,69.7"/>
		<path class="st2" d="M108.8,93c0-0.1,0-0.1,0-0.2c0,0,0,0,0,0C108.8,92.9,108.8,93,108.8,93C108.8,93,108.8,93,108.8,93"/>
		<path class="st2" d="M106.9,103C106.9,103,106.9,103.1,106.9,103c0,0.1,0,0.1,0,0.1C106.8,103.1,106.8,103,106.9,103
			C106.8,103,106.9,103,106.9,103"/>
		<path class="st2" d="M98.3,89.7c0,0.1,0,0.1,0,0.2c0,0,0,0,0,0C98.3,89.8,98.3,89.7,98.3,89.7C98.3,89.7,98.3,89.7,98.3,89.7"/>
		<path class="st2" d="M110.1,80.1C110.1,80.1,110.1,80.1,110.1,80.1C110.1,80.2,110.1,80.2,110.1,80.1
			C110,80.2,110,80.2,110.1,80.1C110,80.1,110,80.1,110.1,80.1"/>
		<path class="st2" d="M110.1,79.8c0,0.1,0,0.1,0,0.2c0,0,0,0,0,0C110,79.9,110,79.9,110.1,79.8C110,79.8,110,79.8,110.1,79.8"/>
		<path class="st2" d="M108.8,97.7c0,0.1,0,0.1,0,0.2c0,0,0,0,0,0C108.8,97.8,108.8,97.8,108.8,97.7
			C108.8,97.7,108.8,97.7,108.8,97.7"/>
		<path class="st2" d="M108,75.6c0,0.1,0,0.1,0,0.2c0,0,0,0,0,0C108,75.7,108,75.6,108,75.6C108,75.6,108,75.6,108,75.6"/>
		<path class="st2" d="M109.5,98.3c0-0.1,0-0.1,0-0.2c0,0,0,0,0,0C109.5,98.2,109.5,98.2,109.5,98.3
			C109.5,98.3,109.5,98.3,109.5,98.3"/>
		<path class="st2" d="M106.2,73.9c0-0.1,0-0.1,0-0.2c0,0,0,0,0,0C106.2,73.8,106.2,73.8,106.2,73.9
			C106.2,73.9,106.2,73.9,106.2,73.9"/>
		<path class="st2" d="M98.4,96.7c0,0.1,0,0.1,0,0.2C98.3,96.8,98.3,96.8,98.4,96.7C98.3,96.8,98.3,96.7,98.4,96.7"/>
		<path class="st2" d="M97.6,84.4c0,0.1,0,0.1,0,0.2c0,0,0,0,0,0C97.6,84.5,97.6,84.4,97.6,84.4C97.6,84.4,97.6,84.4,97.6,84.4"/>
		<path class="st2" d="M109.3,82.8c0-0.1,0-0.1,0-0.2c0,0,0,0,0,0C109.3,82.7,109.4,82.8,109.3,82.8
			C109.3,82.8,109.3,82.8,109.3,82.8"/>
		<path class="st2" d="M106.3,87.2c0,0.1,0,0.2,0,0.2c0,0,0,0,0,0c0,0,0-0.1,0-0.1C106.2,87.2,106.2,87.2,106.3,87.2L106.3,87.2"/>
		<path class="st2" d="M106.2,79c0,0.1,0,0.1,0,0.2c0,0,0,0,0,0C106.2,79.1,106.2,79,106.2,79C106.2,79,106.2,79,106.2,79"/>
		<path class="st2" d="M109.4,96.2C109.4,96.2,109.4,96.2,109.4,96.2C109.4,96.1,109.5,96.1,109.4,96.2
			C109.5,96.2,109.5,96.2,109.4,96.2C109.5,96.2,109.4,96.2,109.4,96.2"/>
		<path class="st2" d="M107.4,84.6c0,0,0-0.1,0-0.1c0,0,0,0,0,0C107.4,84.5,107.4,84.6,107.4,84.6C107.4,84.6,107.4,84.6,107.4,84.6
			"/>
		<path class="st2" d="M109.4,93.9c0,0,0,0.1,0,0.1c0,0,0,0,0,0C109.4,94,109.4,93.9,109.4,93.9C109.4,93.9,109.4,93.9,109.4,93.9"
			/>
		<path class="st2" d="M101.6,80.5c0,0,0-0.1,0-0.1C101.6,80.4,101.6,80.4,101.6,80.5C101.6,80.4,101.6,80.5,101.6,80.5
			C101.6,80.5,101.6,80.5,101.6,80.5"/>
		<path class="st2" d="M101.6,86.4C101.6,86.4,101.6,86.4,101.6,86.4C101.6,86.4,101.7,86.4,101.6,86.4
			C101.7,86.4,101.6,86.4,101.6,86.4C101.6,86.5,101.6,86.4,101.6,86.4"/>
		<path class="st2" d="M106.3,89.4c0,0,0,0.1,0,0.1c0,0,0,0,0,0C106.3,89.5,106.3,89.5,106.3,89.4C106.3,89.4,106.3,89.4,106.3,89.4
			"/>
		<path class="st2" d="M109.4,94.5c0,0,0,0.1,0,0.1c0,0,0,0,0,0C109.4,94.6,109.4,94.5,109.4,94.5C109.4,94.5,109.4,94.5,109.4,94.5
			"/>
		<path class="st2" d="M108.7,80c0,0,0,0.1,0,0.1c0,0,0,0,0,0C108.7,80.1,108.7,80,108.7,80C108.7,80,108.7,80,108.7,80"/>
		<path class="st2" d="M108.7,77c0,0,0,0.1,0,0.1c0,0,0,0,0,0C108.6,77.1,108.6,77.1,108.7,77C108.6,77,108.7,77,108.7,77"/>
		<path class="st2" d="M104.3,77c0,0,0,0.1,0,0.1c0,0,0,0,0,0C104.2,77.1,104.2,77.1,104.3,77C104.2,77,104.2,77,104.3,77"/>
		<path class="st2" d="M108.8,86c0,0,0,0.1,0,0.1c0,0,0,0,0,0C108.8,86.1,108.8,86,108.8,86C108.8,86,108.8,86,108.8,86"/>
		<path class="st2" d="M101,84.8c0,0,0-0.1,0-0.1c0,0,0,0,0,0C101,84.8,101,84.8,101,84.8C101,84.8,101,84.8,101,84.8"/>
		<path class="st2" d="M107.4,83.8c0,0,0,0.1,0,0.1c0,0,0,0,0,0C107.4,83.8,107.4,83.8,107.4,83.8C107.4,83.8,107.4,83.8,107.4,83.8
			"/>
		<path class="st2" d="M100.4,95.9c0,0,0,0.1,0,0.1C100.4,96,100.4,95.9,100.4,95.9C100.4,95.9,100.4,95.9,100.4,95.9"/>
		<path class="st2" d="M110,79.2C110,79.2,110,79.2,110,79.2c0-0.1,0-0.1,0-0.1C110,79.1,110,79.2,110,79.2
			C110,79.2,110,79.2,110,79.2"/>
		<path class="st2" d="M108,75.4c0,0,0-0.1,0-0.1c0,0,0,0,0,0C108,75.3,108,75.4,108,75.4C108,75.4,108,75.4,108,75.4"/>
		<path class="st2" d="M101.6,78.3c0,0,0,0.1,0,0.1C101.6,78.4,101.6,78.4,101.6,78.3C101.6,78.3,101.6,78.3,101.6,78.3"/>
		<path class="st2" d="M98.4,100.8c0,0,0-0.1,0-0.1c0,0,0,0,0,0C98.4,100.7,98.4,100.8,98.4,100.8C98.4,100.8,98.4,100.8,98.4,100.8
			"/>
		<path class="st2" d="M104.3,82.6c0,0,0,0.1,0,0.1c0,0,0,0,0,0C104.3,82.7,104.3,82.7,104.3,82.6C104.3,82.6,104.3,82.6,104.3,82.6
			"/>
		<path class="st2" d="M100.5,99.3c0,0,0,0.1,0,0.1c0,0,0,0,0,0C100.4,99.4,100.4,99.3,100.5,99.3C100.4,99.3,100.4,99.3,100.5,99.3
			"/>
		<path class="st2" d="M104.3,82.4c0,0,0,0.1,0,0.1C104.3,82.4,104.3,82.4,104.3,82.4C104.3,82.4,104.3,82.4,104.3,82.4"/>
		<path class="st2" d="M96.7,74.2c0,0,0-0.1,0-0.1c0,0,0,0,0,0C96.7,74.1,96.7,74.1,96.7,74.2C96.7,74.2,96.7,74.2,96.7,74.2"/>
		<path class="st2" d="M101.6,82.2c0,0,0-0.1,0-0.1C101.6,82.1,101.6,82.2,101.6,82.2C101.6,82.2,101.6,82.2,101.6,82.2"/>
		<path class="st2" d="M110.1,82c0,0,0,0.1,0,0.1C110.1,82,110.1,82,110.1,82C110.1,82,110.1,82,110.1,82"/>
		<path class="st2" d="M100.9,81.9c0,0,0-0.1,0-0.1c0,0,0,0,0,0C100.9,81.8,100.9,81.9,100.9,81.9C100.9,81.9,100.9,81.9,100.9,81.9
			"/>
		<path class="st2" d="M98.3,87.6c0,0,0-0.1,0-0.1c0,0,0,0,0,0C98.3,87.5,98.3,87.6,98.3,87.6C98.3,87.6,98.3,87.6,98.3,87.6"/>
		<path class="st2" d="M98.2,85.3c0,0,0-0.1,0-0.1c0,0,0,0,0,0C98.2,85.3,98.2,85.3,98.2,85.3C98.2,85.3,98.2,85.3,98.2,85.3"/>
		<path class="st2" d="M101.6,81c0,0,0-0.1,0-0.1c0,0,0,0,0,0C101.6,80.9,101.6,81,101.6,81C101.6,81,101.6,81,101.6,81"/>
		<path class="st2" d="M106.2,81.5c0,0,0-0.1,0-0.1c0,0,0,0,0,0C106.2,81.4,106.2,81.5,106.2,81.5C106.2,81.5,106.2,81.5,106.2,81.5
			"/>
		<path class="st2" d="M105.1,103.2C105.1,103.2,105.1,103.2,105.1,103.2C105.1,103.1,105.2,103.2,105.1,103.2
			C105.2,103.2,105.2,103.2,105.1,103.2C105.1,103.2,105.1,103.2,105.1,103.2"/>
		<path class="st2" d="M101.7,84.9c0,0,0,0.1,0,0.1c0,0,0,0,0,0C101.7,85,101.7,85,101.7,84.9C101.7,84.9,101.7,84.9,101.7,84.9"/>
		<path class="st2" d="M97.5,80.2C97.5,80.2,97.5,80.3,97.5,80.2C97.5,80.3,97.5,80.3,97.5,80.2C97.5,80.3,97.5,80.2,97.5,80.2
			C97.5,80.2,97.5,80.2,97.5,80.2"/>
		<path class="st2" d="M106.2,90.1C106.3,90.1,106.3,90,106.2,90.1C106.3,90.1,106.3,90.1,106.2,90.1
			C106.3,90.1,106.3,90.1,106.2,90.1"/>
		<path class="st2" d="M106.2,84.7C106.2,84.7,106.2,84.7,106.2,84.7C106.2,84.7,106.2,84.7,106.2,84.7
			C106.2,84.7,106.2,84.7,106.2,84.7"/>
		<path class="st2" d="M109.4,90.4C109.4,90.4,109.4,90.4,109.4,90.4C109.4,90.3,109.4,90.3,109.4,90.4
			C109.4,90.4,109.4,90.4,109.4,90.4C109.4,90.4,109.4,90.4,109.4,90.4"/>
		<path class="st2" d="M97.5,80C97.5,80,97.5,80,97.5,80C97.5,79.9,97.5,79.9,97.5,80C97.5,80,97.5,80,97.5,80"/>
		<path class="st2" d="M109.5,99.6C109.5,99.6,109.5,99.6,109.5,99.6C109.5,99.6,109.5,99.6,109.5,99.6
			C109.5,99.6,109.5,99.6,109.5,99.6C109.5,99.6,109.5,99.6,109.5,99.6"/>
		<path class="st2" d="M97.5,79.2C97.5,79.2,97.5,79.2,97.5,79.2C97.5,79.2,97.5,79.2,97.5,79.2C97.5,79.2,97.5,79.2,97.5,79.2
			C97.5,79.2,97.5,79.2,97.5,79.2"/>
		<path class="st2" d="M98.3,91.8C98.3,91.8,98.3,91.8,98.3,91.8C98.3,91.8,98.3,91.8,98.3,91.8"/>
		<path class="st2" d="M106.2,85.6C106.2,85.6,106.2,85.6,106.2,85.6C106.2,85.6,106.2,85.6,106.2,85.6"/>
		<path class="st2" d="M110.1,83.2C110.1,83.2,110.1,83.3,110.1,83.2C110.1,83.3,110.1,83.3,110.1,83.2
			C110.1,83.3,110.1,83.2,110.1,83.2C110.1,83.2,110.1,83.2,110.1,83.2"/>
		<path class="st2" d="M108.7,86.6C108.7,86.6,108.7,86.6,108.7,86.6C108.7,86.6,108.7,86.6,108.7,86.6"/>
		<path class="st2" d="M106.2,81.1C106.2,81.1,106.2,81.1,106.2,81.1C106.2,81.1,106.2,81.1,106.2,81.1"/>
		<path class="st2" d="M106.2,83.1C106.2,83,106.2,83,106.2,83.1C106.2,83,106.3,83,106.2,83.1C106.2,83,106.2,83,106.2,83.1
			C106.2,83.1,106.2,83.1,106.2,83.1"/>
		<path class="st2" d="M100.9,78.5C100.9,78.5,100.9,78.5,100.9,78.5C100.9,78.6,100.9,78.6,100.9,78.5
			C100.9,78.5,100.9,78.5,100.9,78.5C100.9,78.5,100.9,78.5,100.9,78.5"/>
		<path class="st2" d="M104.3,83C104.3,83,104.3,82.9,104.3,83C104.3,82.9,104.3,82.9,104.3,83C104.3,82.9,104.3,83,104.3,83
			C104.3,83,104.3,83,104.3,83"/>
		<path class="st2" d="M100.4,93.9C100.4,93.8,100.4,93.8,100.4,93.9C100.4,93.8,100.4,93.8,100.4,93.9
			C100.4,93.9,100.4,93.9,100.4,93.9"/>
		<path class="st2" d="M101.6,78C101.6,78,101.6,77.9,101.6,78C101.6,77.9,101.6,77.9,101.6,78C101.6,77.9,101.6,78,101.6,78
			C101.6,78,101.6,78,101.6,78"/>
		<path class="st2" d="M109.4,94.3C109.4,94.3,109.4,94.2,109.4,94.3C109.4,94.2,109.4,94.2,109.4,94.3
			C109.4,94.2,109.4,94.3,109.4,94.3C109.4,94.3,109.4,94.3,109.4,94.3"/>
		<path class="st2" d="M100.4,94.6C100.4,94.6,100.4,94.6,100.4,94.6C100.4,94.6,100.4,94.6,100.4,94.6"/>
		<path class="st2" d="M104.2,76.7C104.2,76.8,104.2,76.8,104.2,76.7C104.2,76.8,104.2,76.8,104.2,76.7"/>
		<path class="st2" d="M106.2,76.6C106.2,76.6,106.2,76.6,106.2,76.6C106.2,76.5,106.2,76.5,106.2,76.6
			C106.2,76.6,106.2,76.6,106.2,76.6"/>
		<path class="st2" d="M106.2,82.3C106.2,82.3,106.2,82.2,106.2,82.3C106.2,82.2,106.2,82.3,106.2,82.3
			C106.2,82.3,106.2,82.3,106.2,82.3"/>
		<path class="st2" d="M108.8,95.5C108.8,95.6,108.8,95.6,108.8,95.5C108.8,95.6,108.8,95.6,108.8,95.5
			C108.8,95.6,108.8,95.6,108.8,95.5C108.8,95.5,108.8,95.5,108.8,95.5"/>
		<path class="st2" d="M97.6,82.1C97.5,82.1,97.5,82.1,97.6,82.1C97.5,82.1,97.5,82,97.6,82.1C97.5,82,97.5,82,97.6,82.1
			C97.5,82,97.5,82,97.6,82.1"/>
		<path class="st2" d="M101,86.1C101,86.1,101,86.1,101,86.1C101,86,101,86,101,86.1C101,86.1,101,86.1,101,86.1"/>
		<path class="st2" d="M109.4,95.9C109.4,95.9,109.4,95.9,109.4,95.9C109.4,95.9,109.4,95.9,109.4,95.9"/>
		<path class="st2" d="M109.4,83.4c0,0.1,0,0.1,0,0.1C109.3,83.5,109.3,83.4,109.4,83.4C109.3,83.4,109.3,83.4,109.4,83.4"/>
		<path class="st2" d="M101.6,81.8C101.6,81.8,101.6,81.8,101.6,81.8C101.6,81.8,101.6,81.8,101.6,81.8
			C101.6,81.8,101.6,81.8,101.6,81.8C101.6,81.8,101.6,81.8,101.6,81.8"/>
		<path class="st2" d="M110.1,81.6C110.1,81.6,110.1,81.6,110.1,81.6C110.1,81.6,110.1,81.6,110.1,81.6
			C110.1,81.6,110.1,81.6,110.1,81.6"/>
		<path class="st2" d="M100.9,84.6C100.9,84.5,100.9,84.5,100.9,84.6C100.9,84.5,100.9,84.5,100.9,84.6"/>
		<path class="st2" d="M108.8,96.6C108.8,96.6,108.8,96.6,108.8,96.6C108.8,96.6,108.8,96.6,108.8,96.6"/>
		<path class="st2" d="M106.5,103.1C106.4,103.1,106.4,103.2,106.5,103.1C106.4,103.1,106.4,103.1,106.5,103.1
			C106.4,103.1,106.5,103.1,106.5,103.1"/>
		<path class="st2" d="M97.9,66.1C97.9,66.1,97.9,66.1,97.9,66.1C97.9,66.1,97.9,66.1,97.9,66.1"/>
		<path class="st2" d="M106.2,80.7C106.2,80.7,106.2,80.7,106.2,80.7C106.2,80.8,106.2,80.8,106.2,80.7
			C106.2,80.7,106.2,80.7,106.2,80.7C106.2,80.7,106.2,80.7,106.2,80.7"/>
		<path class="st2" d="M97.8,103.9C97.8,103.9,97.8,104,97.8,103.9C97.8,104,97.8,103.9,97.8,103.9
			C97.8,103.9,97.8,103.9,97.8,103.9"/>
		<path class="st2" d="M102.7,104C102.6,104,102.6,104,102.7,104C102.6,104,102.6,104,102.7,104C102.6,104,102.6,104,102.7,104
			C102.7,104,102.7,104,102.7,104"/>
		<path class="st2" d="M101.6,86.9C101.6,86.9,101.6,86.9,101.6,86.9C101.6,86.9,101.7,86.9,101.6,86.9
			C101.6,86.9,101.6,86.9,101.6,86.9C101.6,86.9,101.6,86.9,101.6,86.9"/>
		<path class="st2" d="M106.2,80.5C106.2,80.5,106.2,80.4,106.2,80.5C106.2,80.4,106.2,80.4,106.2,80.5
			C106.2,80.4,106.2,80.5,106.2,80.5C106.2,80.5,106.2,80.5,106.2,80.5"/>
		<path class="st2" d="M109.4,97.6L109.4,97.6L109.4,97.6L109.4,97.6z"/>
		<path class="st2" d="M101.6,85.8C101.6,85.8,101.6,85.8,101.6,85.8C101.6,85.8,101.6,85.8,101.6,85.8L101.6,85.8"/>
		<path class="st2" d="M109.4,85.8L109.4,85.8L109.4,85.8L109.4,85.8z"/>
		<path class="st2" d="M107.4,84.1C107.4,84,107.4,84,107.4,84.1C107.4,84,107.4,84,107.4,84.1L107.4,84.1"/>
		<path class="st2" d="M106.3,87.2C106.3,87.2,106.3,87.2,106.3,87.2C106.3,87.2,106.3,87.2,106.3,87.2L106.3,87.2"/>
		<path class="st2" d="M104.4,100.9L104.4,100.9L104.4,100.9L104.4,100.9z"/>
		<path class="st2" d="M102.6,69.8L102.6,69.8L102.6,69.8L102.6,69.8z"/>
		<path class="st2" d="M98.6,71.5L98.6,71.5L98.6,71.5L98.6,71.5z"/>
		<path class="st2" d="M106.2,75.4L106.2,75.4L106.2,75.4L106.2,75.4z"/>
		<g>
			<defs>
				<rect id="SVGID_19_" x="100.2" y="54.7" width="4.5" height="6.8"/>
			</defs>
			<clipPath id="SVGID_20_">
				<use xlink:href="#SVGID_19_"  style="overflow:visible;"/>
			</clipPath>
			<g class="st11">
				<path class="st12" d="M104.1,57.9l-1.8-3.1l-1.7,3.1c-0.4,0.7-0.4,1.5,0,2.2c0.6,1,1.8,1.3,2.8,0.7
					C104.4,60.2,104.7,58.9,104.1,57.9z"/>
				<path d="M103.7,56.8c-0.4-0.7-0.8-1.4-1.3-2.1c0,0,0,0,0,0c0,0,0,0,0,0c-0.5,0.7-0.9,1.4-1.3,2.1c-0.4,0.6-0.8,1.3-0.9,2
					c-0.1,0.6,0.1,1.1,0.5,1.5c0.7,0.6,2.2,1.1,3.3,0c0.4-0.4,0.6-1,0.5-1.5C104.5,58.1,104.1,57.5,103.7,56.8z M104.1,60.3
					c-0.3,0.3-0.6,0.5-1,0.6c-0.3,0.1-0.8,0-1.1,0c-0.4-0.1-0.8-0.3-1.1-0.6c-0.4-0.4-0.5-0.9-0.4-1.5c0.1-0.6,0.5-1.2,0.8-1.8
					c0.4-0.7,0.8-1.5,1.3-2.2c0.4,0.7,0.9,1.5,1.3,2.2c0.3,0.6,0.7,1.1,0.8,1.8C104.6,59.3,104.5,59.9,104.1,60.3z"/>
			</g>
		</g>
		<path d="M102.4,55.4c-0.2,0.1-0.3,0.3-0.4,0.4c0,0,0,0,0,0C102.1,55.7,102.3,55.6,102.4,55.4C102.4,55.4,102.4,55.4,102.4,55.4z"
			/>
		<path d="M102.3,55.7c-0.3,0.2-0.5,0.5-0.7,0.7c0,0,0,0,0,0c0.1-0.1,0.2-0.3,0.3-0.4C102.1,55.9,102.2,55.8,102.3,55.7
			C102.3,55.7,102.3,55.7,102.3,55.7z"/>
		<path d="M102.2,56.1c-0.3,0.2-0.6,0.5-0.8,0.8c0,0,0,0,0,0c0.1-0.1,0.2-0.2,0.3-0.3C101.9,56.4,102,56.2,102.2,56.1
			C102.2,56.1,102.2,56.1,102.2,56.1z"/>
		<g>
			<defs>
				<rect id="SVGID_21_" x="100.2" y="56.1" width="1.9" height="5"/>
			</defs>
			<clipPath id="SVGID_22_">
				<use xlink:href="#SVGID_21_"  style="overflow:visible;"/>
			</clipPath>
			<g class="st13">
				<path d="M102,56.4C102,56.4,102,56.4,102,56.4c-0.3,0.2-0.5,0.4-0.7,0.7c0,0,0,0,0,0c0,0,0,0,0,0c-0.1,0.1-0.2,0.2-0.3,0.4
					c0,0,0,0,0,0c0.1-0.1,0.1-0.1,0.2-0.2c0,0,0,0.1-0.1,0.1c-0.2,0.3-0.4,0.6-0.5,0.9c0,0,0,0,0,0c0.1-0.2,0.2-0.4,0.4-0.7
					c0,0.1-0.1,0.2-0.1,0.4c-0.2,0.3-0.3,0.5-0.3,0.8c0,0,0,0,0,0c0,0,0,0,0,0c0,0.1,0,0.3,0,0.4c0,0,0,0.1,0,0.1c0,0,0,0,0,0
					c0,0.1,0,0.1,0.1,0.2c0,0.1,0,0.2,0.1,0.3c0,0,0,0,0,0c0,0,0,0,0-0.1c0,0.1,0.1,0.1,0.1,0.2c0,0.1,0.1,0.1,0.1,0.2c0,0,0,0,0,0
					c0-0.1-0.1-0.3-0.1-0.4c0,0,0,0,0,0.1c0,0,0.1,0.1,0.1,0.1c0,0.2,0.1,0.4,0.3,0.4c0,0,0,0,0,0c-0.1-0.1-0.1-0.2-0.1-0.3
					c0.1,0.1,0.1,0.1,0.2,0.2c0.1,0.2,0.2,0.3,0.3,0.3c0,0,0,0,0,0c-0.1-0.1-0.2-0.2-0.2-0.3c0,0,0,0,0,0c0,0,0,0,0,0
					c0-0.1-0.1-0.1-0.1-0.2c-0.1-0.1-0.1-0.3-0.1-0.4c0,0,0,0,0,0c-0.1,0.1,0,0.3,0.1,0.5c-0.1-0.1-0.2-0.1-0.2-0.2c0,0,0-0.1,0-0.1
					c0-0.2,0-0.4,0-0.6c0,0,0,0,0,0c0,0.1-0.1,0.4-0.1,0.6c-0.1-0.1-0.1-0.2-0.1-0.2c0-0.3,0.1-0.5,0.2-0.8c0,0,0,0,0,0
					c-0.1,0.2-0.2,0.4-0.2,0.6c0-0.1-0.1-0.2-0.1-0.3c0.1-0.2,0.2-0.5,0.3-0.7c0,0,0,0,0,0c-0.1,0.2-0.2,0.4-0.3,0.5
					c0-0.1,0-0.2,0-0.3c0,0,0,0,0-0.1c0.1-0.2,0.2-0.4,0.4-0.7c0,0,0,0,0,0c-0.1,0.1-0.3,0.3-0.4,0.5c0-0.1,0.1-0.3,0.1-0.4
					c0.1-0.2,0.3-0.4,0.4-0.6c0,0,0,0,0,0c-0.1,0.1-0.2,0.2-0.3,0.4c0-0.1,0.1-0.3,0.1-0.4c0.2-0.2,0.4-0.4,0.6-0.6c0,0,0,0,0,0
					c-0.2,0.1-0.4,0.3-0.5,0.5c0,0,0-0.1,0-0.1C101.6,57,101.8,56.7,102,56.4z M100.8,59.4c0,0,0-0.1,0-0.1c0-0.1,0-0.2,0.1-0.3
					c0,0,0,0,0,0c0,0.1,0,0.1,0,0.2C100.9,59.3,100.8,59.4,100.8,59.4C100.8,59.5,100.8,59.5,100.8,59.4z M101,59.6
					c0,0.1,0,0.2,0,0.3c0-0.1-0.1-0.2-0.1-0.2c0-0.1,0-0.2,0-0.3C101,59.5,101,59.5,101,59.6z M100.9,58.7c-0.1,0.1-0.1,0.3-0.1,0.4
					c0-0.1,0-0.2,0-0.2c0,0,0,0,0,0c0.1-0.2,0.1-0.3,0.2-0.5C100.9,58.5,100.9,58.6,100.9,58.7z"/>
			</g>
		</g>
		<path d="M102.4,60.7c-0.1,0-0.1-0.1-0.2-0.1c-0.1,0-0.2-0.1-0.2-0.2c-0.1-0.1-0.2-0.3-0.2-0.4c0,0,0,0,0,0c0,0.2,0.1,0.3,0.2,0.5
			C102,60.6,102.2,60.7,102.4,60.7C102.4,60.7,102.4,60.7,102.4,60.7z"/>
		<path d="M102.6,60.6c-0.1,0-0.2,0-0.3-0.1c-0.1-0.1-0.2-0.2-0.2-0.3c0,0,0,0,0,0c0.1,0.1,0.1,0.2,0.2,0.3
			C102.4,60.6,102.5,60.7,102.6,60.6C102.6,60.7,102.6,60.6,102.6,60.6z"/>
		<path d="M102.8,60.5C102.7,60.5,102.7,60.5,102.8,60.5c-0.1,0-0.1,0-0.2,0c-0.1,0-0.1,0-0.1-0.1c0,0,0,0,0,0
			c0,0.1,0.1,0.1,0.2,0.1C102.7,60.6,102.7,60.6,102.8,60.5C102.8,60.5,102.8,60.5,102.8,60.5z"/>
		<g>
			<defs>
				<rect id="SVGID_23_" x="100.2" y="59.1" width="0.9" height="1"/>
			</defs>
			<clipPath id="SVGID_24_">
				<use xlink:href="#SVGID_23_"  style="overflow:visible;"/>
			</clipPath>
			<g class="st14">
				<path d="M101,60c-0.1-0.1-0.2-0.2-0.2-0.3c-0.1-0.1-0.1-0.2-0.1-0.4c0,0,0,0,0,0C100.6,59.5,100.7,59.9,101,60
					C101,60,101,60,101,60z"/>
			</g>
		</g>
		<g>
			<defs>
				<rect id="SVGID_25_" x="113.1" y="12.3" width="20" height="19.7"/>
			</defs>
			<clipPath id="SVGID_26_">
				<use xlink:href="#SVGID_25_"  style="overflow:visible;"/>
			</clipPath>
			<g class="st15">
				<path class="st0" d="M113.5,25.4l6,5.9c0,0,2.8,0.5,3.1-0.6c0.3-1-0.6-2.7-0.6-2.7l10.1-9.9c0,0,0.7-3.3-0.5-4.5
					c-1.2-1.1-3.5-1-4.9-0.3c-1.4,0.7-9.5,9.6-9.5,9.6l-1.3-0.4c0,0-1.8-0.7-2.7,1.4C113.2,24,113.1,24.7,113.5,25.4z"/>
			</g>
		</g>
		<g>
			<defs>
				<rect id="SVGID_27_" x="102.8" y="26.1" width="16.4" height="17"/>
			</defs>
			<clipPath id="SVGID_28_">
				<use xlink:href="#SVGID_27_"  style="overflow:visible;"/>
			</clipPath>
			<g class="st16">
				<path class="st0" d="M114.7,26.9l-5.4,5.6l-3.9,3.5c0,0-0.6,1.1-0.2,2.4c0,0-2.3-0.1-2.2,2.3c0.1,2.4,4.1,2,3.8-0.6
					c0,0,1.6,0.1,2.6-0.8c1-0.9,8.9-8.9,8.9-8.9L114.7,26.9z"/>
			</g>
		</g>
		<g>
			<defs>
				<rect id="SVGID_29_" x="102.8" y="12.3" width="30.4" height="30.7"/>
			</defs>
			<clipPath id="SVGID_30_">
				<use xlink:href="#SVGID_29_"  style="overflow:visible;"/>
			</clipPath>
			<g class="st17">
				<path d="M131.3,13.1c-1.3-0.8-3.2-0.8-4.4,0.1c-0.1-0.1-0.2-0.1-0.4,0c-1.6,1.6-3.2,3.2-4.8,4.8c-0.9,0.8-1.7,1.6-2.6,2.5
					c-0.8,0.8-1.6,1.5-2.2,2.4c0,0,0,0,0,0c-0.1-0.5-0.9-0.7-1.3-0.7c-0.6-0.1-1.2,0.1-1.7,0.5c-0.9,0.6-1.3,2.2-0.4,3
					c0.3,0.5,0.7,0.9,1.1,1.3c-0.7,0.5-1.3,1.3-1.9,1.9c-0.9,1-1.9,1.9-2.8,2.8c-0.8,0.8-1.6,1.6-2.5,2.3c-0.4,0.3-0.7,0.6-1.1,1
					c-0.2,0.2-0.5,0.3-0.6,0.6c-0.4,0.2-0.6,0.7-0.8,1.1c-0.1,0.4-0.2,1.1,0,1.6c-0.9-0.1-1.8,1-2,1.8c-0.1,0.5,0,1,0.2,1.5
					c0.2,0.4,0.7,0.9,1.1,0.9c0.2,0.1,0.4,0.1,0.6,0.1c0.5,0,1-0.1,1.4-0.4c0.6-0.4,0.9-1.2,0.7-1.9c0,0,0,0,0,0
					c0.5,0.3,1.5,0.2,2-0.3c0,0,0.1,0,0.1,0c1.6-1.3,3-2.9,4.4-4.4c0.8-0.9,1.6-1.7,2.5-2.6c0.8-0.8,1.6-1.5,2.3-2.3
					c0.3,0.3,0.5,0.6,0.9,0.7c0.4,1,2.3,0.7,3,0.2c1.2-0.9,1.1-2.4,0.1-3.3c0,0,0.1-0.1,0.1-0.1c0.1-0.1,0.3-0.2,0.4-0.4
					c0.2-0.2,0.5-0.4,0.7-0.7c1-0.9,1.9-1.9,2.9-2.8c1.1-1,2.2-2,3.2-3.1c0.8-0.8,1.8-1.8,2.4-2.9c0.2,0,0.3,0,0.4-0.2
					C133.4,16.4,133,14.2,131.3,13.1z M115.8,32.6c-0.8,0.8-1.6,1.7-2.5,2.6c-1.4,1.5-2.9,2.9-4.4,4.3c-0.3,0.1-0.6,0.2-0.9,0.3
					c-0.3,0.1-0.6,0.1-0.9,0c-0.1,0-0.2,0.1-0.2,0.2c0-0.1-0.1-0.2-0.1-0.2c0,0-0.1,0-0.1,0c0,0.8,0.1,1.4-0.7,1.9
					c-0.3,0.2-0.7,0.3-1.1,0.2c-0.3,0-0.6-0.2-0.8-0.3c-0.1-0.1-0.3-0.2-0.4-0.3c-0.3-0.4-0.4-0.9-0.4-1.4c0-0.5,0.3-0.9,0.6-1.2
					c0.4-0.3,0.8-0.3,1.2-0.4c0,0,0,0,0.1,0.1c0.1,0.1,0.3,0,0.3-0.1c-0.1-0.5-0.3-0.9-0.2-1.5c0-0.3,0.1-0.5,0.3-0.7
					c0.1-0.1,0.2-0.3,0.3-0.4c0.3-0.1,0.5-0.4,0.7-0.5c0.4-0.3,0.7-0.7,1.1-1c0.9-0.8,1.8-1.7,2.7-2.6c0.8-0.8,1.7-1.7,2.5-2.5
					c0.6-0.7,1.5-1.4,1.9-2.2c0.6,0.6,1.3,1.2,1.9,1.8c0.5,0.5,1,1,1.5,1.5C117.3,31,116.6,31.9,115.8,32.6z M131.8,18
					c0,0.1,0,0.1,0,0.1c-0.9,0.8-1.7,1.9-2.5,2.8c-1,1.1-2.1,2.1-3.2,3.1c-1,0.9-1.9,1.9-2.9,2.8c-0.3,0.3-1,0.7-1.2,1.1
					c-0.3-0.2-0.6,0.2-0.3,0.4c1,0.7,1.3,2.1,0.1,2.8c-0.8,0.5-1.6,0.2-2.4-0.1c-0.2-0.4-0.5-0.6-0.8-0.9c-0.6-0.5-1.1-1.1-1.7-1.6
					c-1-1-2.1-2.3-3.3-3.1c-0.2-0.5-0.4-0.9-0.2-1.4c0.1-0.4,0.4-0.8,0.8-1c0.4-0.3,0.9-0.4,1.4-0.3c0.5,0,0.9,0.5,1.3,0.4
					c0,0,0.1,0,0.1-0.1c0,0.1,0.2,0.1,0.3,0.1c0.9-0.6,1.6-1.5,2.3-2.2c0.9-0.8,1.7-1.6,2.6-2.5c1.6-1.5,3.2-3.1,4.8-4.7
					c1.2-0.4,2.4-0.6,3.6-0.1C132.4,14.3,132.4,16.3,131.8,18z"/>
			</g>
		</g>
		<path d="M105.5,39.6c-0.4-0.3-0.7-0.6-0.9-1c0-0.1-0.1,0-0.1,0c0,0.1,0.1,0.3,0.2,0.4c-0.1,0-0.2,0-0.3,0.1
			c-0.1-0.1-0.2-0.3-0.2-0.4c0-0.1-0.1,0-0.1,0c0,0.2,0.1,0.3,0.2,0.5c-0.1,0-0.1,0.1-0.2,0.1c-0.1-0.1-0.1-0.3-0.1-0.4
			c0,0-0.1,0-0.1,0c0,0.2,0,0.3,0.1,0.5c0,0,0,0,0,0c-0.1,0-0.1,0.1-0.2,0.1c0,0,0-0.1,0-0.1c0-0.1-0.1,0-0.1,0c0,0.1,0,0.1,0,0.2
			c-0.1,0.1-0.1,0.1-0.2,0.2c0,0-0.1,0-0.1,0c0,0,0,0.1,0,0.1c0,0,0,0.1,0,0.1c0,0,0,0,0,0c0,0.1,0,0.2,0.1,0.2
			c-0.1,0.1-0.1,0.3-0.1,0.4c0,0,0,0,0.1,0c0.1-0.1,0.1-0.1,0.1-0.2c0,0.1,0.1,0.1,0.1,0.2c-0.1,0.2-0.1,0.4-0.1,0.6
			c0,0,0.1,0.1,0.1,0c0.1-0.1,0.1-0.3,0.2-0.4c0.1,0.1,0.1,0.1,0.2,0.2c0,0.1,0,0.3,0,0.4c0,0.1,0.1,0.1,0.1,0
			c0-0.1,0.1-0.2,0.1-0.3c0.1,0.1,0.1,0.1,0.2,0.1c0,0.2,0,0.5,0.1,0.7c0,0,0.1,0,0.1,0c0-0.2,0-0.4,0-0.6c0,0,0,0,0,0
			c0.1,0,0.1,0,0.2,0c0,0.2,0,0.5,0.2,0.5c0,0,0.1,0,0.1,0c0-0.1-0.1-0.2-0.1-0.4c0-0.2,0-0.4,0-0.5c0-0.1-0.1-0.1-0.1,0
			c0,0.1-0.1,0.2-0.1,0.3c-0.1,0-0.1-0.1-0.2-0.1c0-0.1,0.1-0.2,0.1-0.4c0,0,0.1,0,0.1,0.1c0,0,0.1-0.1,0-0.1
			c-0.1-0.1-0.3-0.2-0.4-0.3c0,0,0-0.1,0-0.1c0-0.1-0.1-0.1-0.1-0.1c0,0,0,0,0,0.1c-0.1-0.1-0.1-0.1-0.1-0.2
			c0.1-0.1,0.1-0.1,0.1-0.2c0.2,0.3,0.5,0.4,0.7,0.5c0.1,0,0.1-0.1,0.1-0.1c-0.3-0.2-0.6-0.4-0.8-0.7c0,0,0-0.1-0.1-0.1
			c0.1,0,0.2-0.1,0.2-0.1c0,0,0,0,0,0c0,0,0,0,0,0c0.2,0.2,0.4,0.5,0.7,0.6c0,0,0.1,0,0.1-0.1c-0.1-0.2-0.4-0.4-0.6-0.6
			c-0.1-0.1-0.1-0.2-0.2-0.3c0.1,0,0.2,0,0.3-0.1c0.2,0.3,0.4,0.5,0.7,0.6C105.5,39.8,105.6,39.7,105.5,39.6z M103.9,39.5
			c0,0.1,0,0.1,0.1,0.2c-0.1,0-0.1,0.1-0.2,0.1c0-0.1-0.1-0.1-0.1-0.2C103.8,39.6,103.8,39.5,103.9,39.5z M103.5,40.2
			c0-0.1,0-0.1-0.1-0.2c0.1-0.1,0.1-0.1,0.1-0.2c0,0,0,0,0.1-0.1c0,0.1,0,0.1,0.1,0.2c0,0,0,0,0,0C103.6,40,103.5,40.1,103.5,40.2z
			 M103.7,40.6c0-0.1-0.1-0.1-0.1-0.2c0.1-0.1,0.1-0.2,0.2-0.3c0,0.1,0.1,0.2,0.1,0.2C103.8,40.4,103.8,40.5,103.7,40.6z
			 M104.3,40.7c0.1,0,0.1,0.1,0.2,0.1c0,0.1-0.1,0.2-0.1,0.3c-0.1,0-0.1-0.1-0.2-0.1C104.2,41,104.2,40.9,104.3,40.7z M104.2,40.6
			c-0.1,0.1-0.1,0.2-0.2,0.3c0,0-0.1-0.1-0.1-0.1c0,0-0.1-0.1-0.1-0.1c0,0,0,0,0-0.1c0-0.1,0.1-0.2,0.1-0.2
			C104,40.5,104.1,40.6,104.2,40.6z M104,40.2c-0.1-0.1-0.1-0.1-0.1-0.2c0.1-0.1,0.1-0.1,0.2-0.2c0,0.1,0.1,0.1,0.1,0.2
			C104.1,40.1,104.1,40.2,104,40.2z M104.1,39.6c0-0.1-0.1-0.1-0.1-0.2c0.1,0,0.1-0.1,0.2-0.1c0,0.1,0.1,0.1,0.1,0.2
			C104.3,39.5,104.2,39.5,104.1,39.6z"/>
		<path d="M105.7,39.2c-0.3-0.2-0.5-0.5-0.7-0.8c0,0-0.1,0-0.1,0c0.1,0.3,0.2,0.6,0.5,0.8c0.2,0.2,0.5,0.5,0.8,0.4c0,0,0,0,0-0.1
			C106.1,39.4,105.9,39.3,105.7,39.2z"/>
		<path d="M106.2,39.1c-0.1-0.2-0.3-0.2-0.4-0.3c-0.2-0.1-0.3-0.2-0.4-0.3c-0.1-0.1-0.2,0-0.1,0.1c0.1,0.2,0.3,0.3,0.4,0.5
			c0.1,0.1,0.3,0.3,0.5,0.2C106.2,39.2,106.2,39.2,106.2,39.1z"/>
		<path d="M105.5,41.9c0-0.1-0.1-0.2-0.2-0.2c-0.1-0.1-0.1-0.2-0.1-0.4c0-0.1-0.1-0.1-0.2,0c0,0.1,0,0.3,0,0.4
			c0,0.1,0.2,0.3,0.3,0.3C105.5,42.1,105.5,42,105.5,41.9z"/>
		<path d="M105.9,41.7c-0.1-0.1-0.2-0.1-0.3-0.3c0-0.1-0.2,0-0.2,0.1c0,0.1,0.1,0.2,0.1,0.3c0.1,0.1,0.2,0.1,0.3,0.1
			C105.9,41.9,105.9,41.8,105.9,41.7z"/>
		<path d="M109,36.5c-0.4-0.3-0.8-0.5-1.1-0.9c-0.3-0.3-0.5-0.6-0.8-0.9c0,0,0,0,0,0c0,0.1,0,0.3,0.1,0.4c-0.1,0.1-0.2,0.2-0.3,0.2
			c-0.1-0.1-0.1-0.1-0.2-0.2c0,0-0.1,0-0.1,0c0,0.1,0.1,0.2,0.1,0.3c-0.1,0.1-0.2,0.2-0.2,0.3c-0.1-0.1-0.2-0.2-0.3-0.4
			c0,0-0.1,0-0.1,0c0,0.2,0.1,0.4,0.2,0.5c-0.1,0.1-0.1,0.2-0.1,0.3c-0.1-0.2-0.2-0.3-0.4-0.5c0,0-0.1,0-0.1,0
			c0,0.3,0.2,0.5,0.3,0.7c0,0.1-0.1,0.2-0.1,0.3c-0.1-0.2-0.3-0.4-0.4-0.7c0,0-0.1,0-0.1,0c0.1,0.3,0.2,0.6,0.4,0.9
			c0,0.1-0.1,0.2-0.1,0.3c-0.2-0.3-0.3-0.5-0.4-0.8c0,0-0.1,0-0.1,0c-0.1,0.4,0.1,0.9,0.5,1.2c0,0.1,0,0.2,0,0.3
			c-0.2-0.2-0.4-0.4-0.5-0.7c0-0.1-0.1,0-0.1,0c0.1,0.4,0.3,0.7,0.6,1c0,0.1,0,0.2,0.1,0.3c0,0.1,0.1,0.1,0.1,0c0,0,0-0.1,0-0.1
			c0.1,0.1,0.3,0.2,0.4,0.3c0,0,0,0,0,0c0,0,0.1,0,0.1,0c0.2,0.1,0.3,0.2,0.5,0.3c0,0,0.1,0,0-0.1c-0.1-0.1-0.1-0.1-0.2-0.2
			c0,0,0,0,0,0c0-0.1,0-0.2,0-0.3c0,0,0.1,0.1,0.1,0.1c0,0.1,0,0.2,0,0.3c0,0.1,0.2,0.1,0.2,0c0,0,0-0.1,0-0.1c0,0,0.1,0,0.1,0.1
			c0,0,0,0,0,0c0,0.1,0,0.2,0,0.3c0,0.1,0.2,0.1,0.2,0c0-0.1,0-0.1,0-0.2c0.1,0,0.1,0.1,0.2,0.1c0,0,0.1,0,0-0.1
			c-0.2-0.1-0.3-0.3-0.5-0.4c0-0.1,0-0.2,0-0.2c0-0.1-0.1-0.1-0.1-0.1c0,0.1-0.1,0.1-0.1,0.2c-0.1-0.1-0.1-0.1-0.2-0.2
			c0-0.1,0-0.2,0.1-0.3c0.3,0.2,0.5,0.3,0.8,0.4c0.1,0,0.1-0.1,0-0.1c-0.4-0.3-0.8-0.5-1.2-0.9c0-0.1,0-0.2,0.1-0.3
			c0.3,0.3,0.8,0.8,1.3,0.9c0,0,0,0,0,0c-0.2-0.2-0.4-0.3-0.6-0.4c-0.2-0.2-0.4-0.4-0.6-0.6c0-0.1,0.1-0.1,0.1-0.2
			c0-0.1-0.1-0.1-0.1-0.1c0,0-0.1,0.1-0.1,0.1c-0.1-0.1-0.2-0.3-0.3-0.4c0-0.1,0.1-0.2,0.1-0.3c0.4,0.5,1,0.9,1.5,1.1
			c0,0,0.1,0,0-0.1c-0.3-0.3-0.6-0.5-0.9-0.8c-0.1-0.1-0.3-0.3-0.4-0.5c0.1-0.1,0.1-0.2,0.2-0.3c0.3,0.6,0.9,1,1.5,1.3
			c0.1,0,0.2-0.1,0.1-0.1c-0.5-0.4-1.1-0.8-1.5-1.3c0.1-0.1,0.1-0.2,0.2-0.3c0.2,0.2,0.4,0.5,0.6,0.6C108,36.1,108.5,36.5,109,36.5
			C109,36.6,109,36.5,109,36.5z M106,38.3c0-0.1,0-0.2,0-0.3c0.1,0.1,0.2,0.2,0.3,0.2c0,0.1,0,0.2,0,0.3
			C106.2,38.5,106.1,38.4,106,38.3z M106.3,38c-0.1-0.1-0.2-0.2-0.3-0.3c0-0.1,0-0.3,0-0.4c0.1,0.1,0.2,0.3,0.3,0.4
			C106.3,37.8,106.3,37.9,106.3,38z M106.5,38.7c0-0.1,0-0.2,0-0.3c0,0,0.1,0.1,0.1,0.1c0,0.1,0,0.2,0,0.3
			C106.6,38.8,106.5,38.8,106.5,38.7z M106.8,38c0,0.1-0.1,0.2-0.1,0.3c0,0-0.1-0.1-0.1-0.1c0-0.1,0-0.2,0-0.3
			C106.6,37.9,106.7,38,106.8,38z M106.6,37.1c0,0.1-0.1,0.2-0.1,0.3c-0.1-0.1-0.2-0.3-0.3-0.4c0,0,0-0.1,0-0.1c0-0.1,0-0.1,0.1-0.1
			C106.3,36.8,106.5,37,106.6,37.1z"/>
		<path d="M109.3,35.9c-0.2-0.3-0.7-0.5-1-0.7c-0.3-0.3-0.6-0.6-0.9-0.9c0,0-0.1,0-0.1,0c0.2,0.4,0.5,0.7,0.8,1
			C108.5,35.6,108.9,35.9,109.3,35.9C109.3,36,109.3,36,109.3,35.9z"/>
		<path d="M109.7,35.5c-0.3-0.2-0.7-0.5-1-0.7c-0.3-0.3-0.6-0.6-0.9-0.9c0,0-0.1,0-0.1,0.1C108.1,34.6,108.9,35.3,109.7,35.5
			C109.7,35.5,109.7,35.5,109.7,35.5z"/>
		<path d="M110.2,35.2c-0.3-0.2-0.6-0.4-0.9-0.7c-0.3-0.3-0.7-0.7-1-1c0,0-0.1,0-0.1,0C108.7,34.2,109.4,35,110.2,35.2
			C110.3,35.3,110.3,35.2,110.2,35.2z"/>
		<path d="M110.6,34.7c-0.3-0.2-0.6-0.4-0.8-0.7c-0.4-0.3-0.6-0.7-1-1c0,0-0.1,0-0.1,0C109,33.8,109.9,34.5,110.6,34.7
			C110.6,34.8,110.7,34.7,110.6,34.7z"/>
		<path d="M111,34.2c-0.6-0.6-1.2-1.1-1.7-1.7c0,0-0.1,0-0.1,0C109.6,33.3,110.3,33.9,111,34.2C111,34.3,111.1,34.2,111,34.2z"/>
		<path d="M111.3,33.7c-0.5-0.5-1-0.9-1.4-1.6c0-0.1-0.1,0-0.1,0c0.2,0.7,0.8,1.3,1.4,1.7C111.3,33.8,111.3,33.7,111.3,33.7z"/>
		<path d="M111.8,33.2c-0.3-0.3-0.5-0.5-0.8-0.8c-0.3-0.3-0.5-0.6-0.6-0.9c0,0-0.1,0-0.1,0C110.3,32.3,111.2,32.9,111.8,33.2
			C111.8,33.3,111.8,33.2,111.8,33.2z"/>
		<path d="M116.4,29.1C116.4,29,116.3,29,116.4,29.1c0-0.1-0.1-0.2-0.1-0.2c-0.1-0.1-0.1-0.2-0.2-0.3c0.1-0.1,0.2-0.2,0.2-0.3
			c0,0,0-0.1-0.1-0.1c-0.1,0.1-0.2,0.2-0.3,0.2c-0.1-0.1-0.1-0.1-0.2-0.2c0.1-0.1,0.2-0.2,0.2-0.3c0,0,0,0,0,0
			c-0.1,0.1-0.2,0.1-0.3,0.2c-0.1,0-0.1-0.1-0.2-0.1c0,0,0,0-0.1-0.1c0.1-0.2,0.3-0.3,0.4-0.5c0,0,0-0.1,0,0
			c-0.2,0.1-0.3,0.3-0.5,0.4c-0.1-0.1-0.2-0.2-0.3-0.2c0.1-0.1,0.3-0.3,0.4-0.4c0.1-0.1,0-0.1-0.1-0.1c-0.1,0.1-0.3,0.2-0.4,0.4
			c-0.1-0.1-0.3-0.2-0.4-0.4c0,0-0.1,0,0,0c0.1,0.1,0.2,0.3,0.3,0.4c-0.1,0.1-0.1,0.1-0.2,0.2c-0.1-0.1-0.2-0.3-0.3-0.4
			c0,0-0.1,0-0.1,0c0,0.2,0.1,0.3,0.2,0.5c-0.1,0.1-0.2,0.2-0.3,0.3c-0.1-0.1-0.2-0.2-0.3-0.3c0,0-0.1,0-0.1,0
			c0,0.2,0.1,0.3,0.2,0.5c-0.1,0.1-0.2,0.2-0.3,0.3c-0.1-0.1-0.2-0.2-0.3-0.3c0,0,0,0,0,0c0,0.1,0.1,0.3,0.2,0.4
			c-0.1,0.1-0.2,0.2-0.3,0.3c-0.1-0.1-0.2-0.2-0.3-0.4c0,0,0,0,0,0c0.1,0.2,0.1,0.3,0.2,0.5c-0.1,0.1-0.2,0.2-0.3,0.3
			c-0.1-0.1-0.1-0.1-0.2-0.2c0,0-0.1,0-0.1,0c0,0.1,0.1,0.2,0.1,0.3c-0.1,0.1-0.2,0.2-0.3,0.3c-0.1-0.1-0.1-0.2-0.2-0.2
			c0,0-0.1,0-0.1,0c0,0.1,0.1,0.2,0.1,0.3c-0.1,0.1-0.2,0.2-0.3,0.3c-0.1-0.1-0.1-0.2-0.2-0.2c0,0-0.1,0-0.1,0
			c0,0.1,0.1,0.2,0.1,0.3c-0.1,0.1-0.2,0.2-0.3,0.3c-0.1-0.1-0.2-0.3-0.2-0.4c0-0.1-0.1,0-0.1,0c0,0.2,0.1,0.4,0.2,0.6
			c-0.1,0.1-0.2,0.2-0.3,0.3c-0.1-0.1-0.2-0.2-0.3-0.4c0,0-0.1,0,0,0c0,0.2,0.1,0.3,0.2,0.5c-0.1,0.1-0.2,0.2-0.2,0.3
			c0,0,0,0.1,0.1,0.1c0.1-0.1,0.2-0.2,0.2-0.2c0.3,0.5,0.7,0.9,1.2,1.1c0.1,0,0.1-0.1,0.1-0.1c-0.3-0.2-0.6-0.4-0.8-0.7
			c-0.1-0.1-0.2-0.3-0.3-0.4c0.1-0.1,0.2-0.2,0.3-0.3c0.3,0.5,0.8,1,1.3,1.2c0.1,0,0.1-0.1,0.1-0.1c-0.4-0.4-0.8-0.8-1.2-1.2
			c0.1-0.1,0.2-0.2,0.3-0.3c0.3,0.5,0.9,1,1.4,1.1c0.1,0,0.1-0.1,0-0.1c-0.3-0.2-0.6-0.4-0.9-0.7c-0.2-0.1-0.3-0.3-0.4-0.5
			c0.1-0.1,0.2-0.2,0.3-0.3c0.1,0.2,0.3,0.3,0.4,0.5c0.3,0.3,0.7,0.6,1.1,0.6c0.1,0,0.1-0.1,0-0.1c-0.4-0.2-0.7-0.4-1-0.7
			c-0.2-0.1-0.3-0.3-0.4-0.5c0.1-0.1,0.2-0.2,0.2-0.3c0.1,0.1,0.1,0.2,0.2,0.3c0,0,0,0,0,0c-0.1,0.1,0,0.2,0.1,0.1c0,0,0,0,0,0
			c0.4,0.4,0.9,0.7,1.3,0.9c0,0,0.1,0,0.1-0.1c-0.3-0.3-0.6-0.5-0.9-0.8c-0.1-0.1-0.2-0.2-0.3-0.3c0.1-0.1,0.2-0.2,0.3-0.2
			c0.4,0.4,0.8,0.7,1.2,0.8c0.1,0,0.1-0.1,0.1-0.1c-0.2-0.3-0.5-0.5-0.7-0.7c-0.1-0.1-0.2-0.2-0.3-0.3c0.1-0.1,0.2-0.2,0.3-0.3
			c0,0,0.1,0.1,0.1,0.1c0.3,0.3,0.7,0.7,1.1,0.8c0,0,0.1,0,0.1-0.1c-0.3-0.3-0.7-0.6-1.1-1c0,0,0,0,0,0c0.1-0.1,0.2-0.2,0.3-0.2
			c0.1,0.1,0.1,0.1,0.2,0.2c0,0,0,0.1-0.1,0.1c0,0,0,0.1,0.1,0.1c0,0,0.1,0,0.1-0.1c0.3,0.3,0.7,0.5,1,0.6c0,0,0.1,0,0-0.1
			c-0.3-0.2-0.6-0.4-0.9-0.7c0.1-0.1,0.2-0.2,0.3-0.3c0.1,0.1,0.1,0.1,0.2,0.2c-0.1,0.1-0.2,0.2-0.2,0.3c0,0,0,0.1,0.1,0.1
			c0.1-0.1,0.2-0.2,0.3-0.3c0.2,0.1,0.3,0.2,0.5,0.3c0.1,0,0.1,0,0.1-0.1c0,0-0.1-0.1-0.1-0.1c0,0,0,0,0,0c0.1-0.1,0.2-0.1,0.3-0.2
			C116.3,29.1,116.3,29.1,116.4,29.1C116.4,29.2,116.4,29.1,116.4,29.1z M114.9,27.8c0.1,0.1,0.2,0.2,0.2,0.2
			c-0.1,0.1-0.2,0.1-0.2,0.2c-0.1-0.1-0.1-0.2-0.2-0.2C114.8,27.9,114.8,27.9,114.9,27.8z M113.1,30.1c-0.1-0.1-0.1-0.2-0.2-0.2
			c0.1-0.1,0.2-0.2,0.3-0.3c0.1,0.1,0.1,0.2,0.2,0.2C113.2,29.9,113.1,30,113.1,30.1z M113.5,29.6c-0.1-0.1-0.1-0.1-0.2-0.2
			c0.1-0.1,0.2-0.2,0.3-0.3c0.1,0.1,0.1,0.1,0.2,0.2C113.7,29.4,113.6,29.5,113.5,29.6z M113.9,29.2c-0.1-0.1-0.1-0.1-0.2-0.2
			c0.1-0.1,0.2-0.2,0.2-0.2c0.1,0.1,0.1,0.2,0.2,0.2C114.1,29,114,29.1,113.9,29.2z M114.2,28.5c0.1-0.1,0.2-0.2,0.3-0.3
			c0.1,0.1,0.1,0.2,0.2,0.2c-0.1,0.1-0.2,0.2-0.3,0.3C114.3,28.7,114.2,28.6,114.2,28.5z M114.7,29.1
			C114.7,29.1,114.7,29.1,114.7,29.1c-0.1-0.1-0.2-0.2-0.2-0.2c0.1-0.1,0.2-0.2,0.3-0.3c0.1,0.1,0.1,0.1,0.2,0.2
			C114.9,28.9,114.8,29,114.7,29.1z M115.2,28.6C115.2,28.6,115.2,28.6,115.2,28.6c-0.1-0.1-0.1-0.1-0.2-0.2
			c0.1-0.1,0.2-0.2,0.2-0.2c0.1,0.1,0.1,0.1,0.2,0.2C115.4,28.5,115.3,28.5,115.2,28.6C115.3,28.6,115.2,28.6,115.2,28.6z
			 M115.5,28.9c-0.1-0.1-0.1-0.1-0.2-0.2c0,0,0,0,0,0c0.1-0.1,0.1-0.1,0.2-0.2c0.1,0.1,0.1,0.1,0.2,0.2c0,0-0.1,0.1-0.1,0.1
			S115.6,28.8,115.5,28.9z M115.9,29.2C115.9,29.2,115.9,29.2,115.9,29.2c-0.1,0-0.2-0.1-0.3-0.2c0,0,0.1-0.1,0.1-0.1
			c0,0,0.1-0.1,0.1-0.1c0.1,0.1,0.2,0.1,0.2,0.2C116,29,116,29.1,115.9,29.2z"/>
		<path d="M122.2,28.4c-0.5-1.1-1.5-1.9-2.3-2.7c-0.8-0.8-1.7-1.9-2.6-2.6c0,0-0.1,0-0.1,0.1c0.4,1,1.5,1.8,2.2,2.5
			c0.9,0.9,1.7,1.9,2.7,2.8C122.2,28.6,122.3,28.5,122.2,28.4z"/>
		<path d="M115.6,26.7c-0.8-0.9-1.7-1.7-2.3-2.8c0,0-0.1,0-0.1,0C113.4,25.2,114.7,26,115.6,26.7C115.6,26.8,115.7,26.7,115.6,26.7z
			"/>
		<path d="M116.6,27.1c-0.9-1.2-2-2.5-3.1-3.5c0,0-0.1,0-0.1,0.1C114.2,25,115.4,26.1,116.6,27.1C116.6,27.3,116.6,27.2,116.6,27.1z
			"/>
		<path d="M117.6,27.2c-0.7-0.7-1.3-1.5-2-2.3c-0.6-0.7-1.1-1.5-1.8-2c0,0-0.1,0-0.1,0.1c0.5,0.8,1.2,1.6,1.9,2.3
			c0.6,0.7,1.2,1.4,1.9,2C117.6,27.3,117.6,27.2,117.6,27.2z"/>
		<path d="M118.3,26.8c-1.1-1.5-2.4-3.1-3.9-4.2c0,0-0.1,0-0.1,0.1C115.4,24.1,116.8,25.7,118.3,26.8
			C118.3,26.9,118.3,26.8,118.3,26.8z"/>
		<path d="M118.5,26.1c-0.8-1.3-1.9-2.6-3-3.6c0,0-0.1,0-0.1,0.1C116.2,23.8,117.4,25,118.5,26.1C118.4,26.1,118.5,26.1,118.5,26.1z
			"/>
		<path d="M124.7,21.8c-0.5-0.6-1-1.1-1.5-1.6c-0.2-0.2-0.5-0.5-0.7-0.8c0.1-0.1,0.2-0.2,0.2-0.2c0-0.1,0-0.1-0.1-0.1
			c-0.1,0.1-0.2,0.1-0.3,0.2c-0.3-0.3-0.6-0.6-0.9-0.9c-0.1,0-0.1,0-0.1,0.1c0.2,0.3,0.5,0.7,0.7,1c-0.2,0.1-0.3,0.3-0.5,0.4
			c-0.2-0.2-0.4-0.4-0.6-0.7c-0.1-0.1-0.1,0-0.1,0.1c0.1,0.3,0.3,0.5,0.5,0.8c-0.1,0.1-0.3,0.3-0.4,0.4c-0.2-0.3-0.4-0.5-0.7-0.8
			c0-0.1-0.1,0-0.1,0.1c0.2,0.3,0.4,0.6,0.6,0.9c-0.1,0.1-0.2,0.3-0.4,0.4c0,0,0,0,0,0.1c-0.2-0.2-0.4-0.5-0.7-0.7
			c-0.1-0.1-0.1,0-0.1,0.1c0.2,0.3,0.4,0.5,0.6,0.8c-0.2,0.2-0.4,0.4-0.5,0.5c-0.3-0.3-0.6-0.6-0.8-0.8c0,0-0.1,0-0.1,0.1
			c0.2,0.3,0.4,0.7,0.7,1c-0.1,0.1-0.3,0.3-0.4,0.4c-0.2-0.2-0.5-0.4-0.7-0.7c-0.1-0.1-0.2,0-0.1,0.1c0.2,0.2,0.4,0.5,0.7,0.7
			c-0.1,0.1-0.3,0.3-0.4,0.4c-0.2-0.2-0.4-0.4-0.6-0.5v0c0,0,0,0,0,0c-0.1-0.1-0.2-0.1-0.3-0.1c0,0,0,0,0,0c0,0.2,0.2,0.3,0.3,0.4
			c0.2,0.1,0.3,0.3,0.5,0.5c0,0,0,0.1,0.1,0.1c0.1,0.1,0.2,0.2,0.3,0.3c0.5,0.5,0.9,1,1.5,1.5c0.1,0.1,0.2,0,0.1-0.1
			c-0.1-0.1-0.1-0.2-0.2-0.3c0.2-0.1,0.4-0.4,0.5-0.5c0.1,0.1,0.2,0.2,0.3,0.3c-0.3,0.2-0.6,0.5-0.7,0.9c0,0.1,0.1,0.1,0.1,0.1
			c0.3-0.2,0.5-0.6,0.8-0.8c0.1,0.1,0.2,0.2,0.3,0.2c0,0,0,0,0,0c-0.2,0.2-0.5,0.5-0.6,0.9c0,0.1,0.1,0.1,0.1,0.1
			c0.2-0.2,0.4-0.5,0.6-0.7c0.2-0.2,0.4-0.5,0.6-0.7c0,0,0.1,0,0.1,0.1c0.1,0.1,0.2,0,0.1-0.1c0,0-0.1-0.1-0.1-0.1
			c0,0,0.1-0.1,0.1-0.1c0.1-0.1,0-0.2-0.1-0.2c0,0-0.1,0.1-0.1,0.1c-0.1-0.1-0.2-0.2-0.2-0.3c0.1-0.1,0.1-0.1,0.2-0.2
			c0.1-0.1,0-0.2-0.1-0.2c-0.1,0.1-0.2,0.1-0.3,0.2c-0.1-0.1-0.3-0.3-0.4-0.4c0.1-0.1,0.2-0.2,0.3-0.3c0.1-0.1,0-0.2-0.1-0.1
			c-0.1,0.1-0.2,0.2-0.3,0.3c-0.1-0.1-0.2-0.2-0.4-0.3c0.1-0.1,0.3-0.3,0.4-0.4c0.6,0.6,1.2,1.1,1.8,1.6c0.1,0.1,0.1-0.1,0.1-0.1
			c-0.5-0.6-1.1-1.2-1.6-1.7v0c0.1-0.1,0.1-0.1,0.2-0.2c0.1-0.1,0-0.2-0.1-0.1c-0.1,0.1-0.1,0.1-0.2,0.2c-0.1-0.1-0.3-0.3-0.4-0.4
			c0.1-0.1,0.3-0.2,0.4-0.3c0.7,0.8,1.5,1.5,2.2,2.1c0.1,0,0.2,0,0.1-0.1c-0.5-0.7-1.2-1.3-1.8-1.9c-0.1-0.1-0.2-0.2-0.3-0.3
			c0.1-0.1,0.2-0.2,0.4-0.3c0,0,0,0,0,0c0.6,0.8,1.3,1.4,2,2.1c0.1,0,0.1,0,0.1-0.1c-0.6-1-1.5-1.9-2.3-2.8c0.1-0.2,0.3-0.3,0.4-0.5
			c0.2,0.2,0.4,0.4,0.5,0.6c0.6,0.6,1.1,1.2,1.8,1.7C124.7,21.9,124.7,21.8,124.7,21.8z M120.3,21.6c0.1,0.1,0.2,0.2,0.2,0.3
			c-0.2,0.2-0.3,0.3-0.5,0.5c-0.1-0.1-0.1-0.1-0.2-0.2C120,22,120.2,21.8,120.3,21.6z M120.3,23.1c-0.1,0.1-0.2,0.2-0.3,0.4
			c-0.1-0.1-0.2-0.2-0.3-0.3c0.1-0.1,0.2-0.2,0.3-0.4C120.1,22.9,120.2,23,120.3,23.1z M119.6,22.4c0.1,0.1,0.1,0.1,0.2,0.2
			c-0.1,0.1-0.2,0.2-0.4,0.4c-0.1-0.1-0.2-0.1-0.2-0.2C119.3,22.6,119.5,22.5,119.6,22.4z M118.8,23.5c-0.1-0.1-0.1-0.1-0.2-0.2
			c0.2-0.1,0.3-0.2,0.5-0.4c0.1,0.1,0.2,0.2,0.2,0.2c-0.1,0.2-0.3,0.3-0.4,0.5C118.8,23.6,118.8,23.6,118.8,23.5z M119.4,24.3
			c-0.1-0.2-0.3-0.3-0.4-0.5c0.2-0.1,0.3-0.3,0.4-0.4c0.1,0.1,0.2,0.2,0.3,0.3c-0.1,0.1-0.2,0.3-0.4,0.4
			C119.4,24.2,119.4,24.2,119.4,24.3z M119.8,24.7c-0.1-0.1-0.2-0.3-0.3-0.4c0,0,0.1,0,0.1,0c0.1-0.1,0.3-0.3,0.4-0.4
			c0.1,0.1,0.2,0.2,0.3,0.3C120.1,24.3,119.9,24.5,119.8,24.7z M121.9,24.4c-0.2,0.2-0.3,0.3-0.5,0.5c0,0,0,0,0-0.1
			c-0.1-0.1-0.2-0.2-0.3-0.3c0.2-0.1,0.3-0.3,0.5-0.4C121.7,24.3,121.8,24.3,121.9,24.4z M121.4,24.1c-0.2,0.1-0.3,0.2-0.5,0.4
			c-0.1-0.1-0.2-0.2-0.3-0.3c0.1-0.1,0.3-0.2,0.4-0.4C121.2,23.9,121.3,24,121.4,24.1z M120.9,23.6c-0.1,0.1-0.3,0.2-0.4,0.3
			c-0.1-0.1-0.2-0.2-0.3-0.3c0.1-0.1,0.2-0.2,0.4-0.4C120.6,23.4,120.8,23.5,120.9,23.6z M121.1,22.5c-0.2,0.1-0.3,0.3-0.5,0.4
			c-0.1-0.1-0.1-0.1-0.2-0.2c-0.1-0.1-0.1-0.1-0.2-0.2c0.2-0.2,0.3-0.3,0.5-0.5C120.8,22.2,121,22.3,121.1,22.5z M120.8,21.7
			c-0.1-0.1-0.2-0.2-0.3-0.3c0,0,0,0,0,0c0.1-0.1,0.2-0.2,0.4-0.4c0.1,0.1,0.2,0.2,0.3,0.4C121.1,21.5,121,21.6,120.8,21.7z
			 M121.9,20.8C121.9,20.8,121.9,20.8,121.9,20.8c-0.2,0.1-0.3,0.2-0.4,0.3c-0.1-0.1-0.2-0.3-0.3-0.4c0.1-0.1,0.3-0.3,0.4-0.4
			C121.7,20.5,121.8,20.7,121.9,20.8z"/>
		<g>
			<defs>
				<rect id="SVGID_31_" x="122.1" y="12.3" width="9" height="9.7"/>
			</defs>
			<clipPath id="SVGID_32_">
				<use xlink:href="#SVGID_31_"  style="overflow:visible;"/>
			</clipPath>
			<g class="st18">
				<path d="M131,14.7c-0.1-0.3-0.3-0.6-0.6-0.8c-0.2-0.3-0.5-0.5-0.7-0.8c-0.1-0.1-0.2,0-0.1,0.1c0.1,0.2,0.3,0.3,0.4,0.5
					c-0.2,0-0.4,0-0.5,0c-0.2-0.3-0.5-0.5-0.8-0.7c-0.1,0-0.1,0-0.1,0.1c0.2,0.2,0.4,0.4,0.5,0.7c-0.2,0-0.4,0.1-0.5,0.1
					c-0.3-0.3-0.7-0.6-1-0.9c-0.1,0-0.1,0-0.1,0.1c0.2,0.3,0.5,0.6,0.8,0.9c-0.2,0.1-0.3,0.1-0.5,0.2c-0.4-0.3-0.7-0.7-1.1-1
					c-0.1-0.1-0.2,0-0.1,0.1c0.3,0.4,0.6,0.7,0.9,1c-0.2,0.1-0.3,0.2-0.4,0.3c-0.1-0.1-0.2-0.2-0.3-0.3c-0.1-0.2-0.3-0.4-0.5-0.4
					c0,0,0,0,0,0c0,0.3,0.3,0.6,0.6,0.9c-0.2,0.1-0.3,0.3-0.5,0.4c-0.2-0.2-0.3-0.3-0.5-0.5c0-0.1-0.1,0-0.1,0.1
					c0.1,0.2,0.3,0.4,0.4,0.6c-0.2,0.1-0.3,0.3-0.4,0.5c-0.2-0.2-0.5-0.5-0.7-0.7c0,0-0.1,0-0.1,0.1c0.2,0.3,0.4,0.6,0.6,0.9
					c-0.1,0.1-0.2,0.3-0.3,0.4c-0.3-0.3-0.5-0.5-0.8-0.8c0,0-0.1,0-0.1,0.1c0.2,0.3,0.4,0.6,0.7,1c-0.1,0.2-0.3,0.3-0.4,0.5
					c-0.2-0.3-0.5-0.6-0.7-0.8c0,0-0.1,0-0.1,0c0.1,0.4,0.4,0.7,0.6,1c-0.2,0.2-0.4,0.5-0.5,0.7c-0.2-0.2-0.5-0.5-0.6-0.8
					c0,0,0,0,0,0c-0.1,0.3,0.2,0.7,0.5,1c-0.1,0.1-0.2,0.3-0.3,0.4c-0.3-0.4-0.7-0.8-1-1.1c-0.1,0-0.1,0-0.1,0.1
					c0.3,0.5,0.6,0.9,0.9,1.4c0,0,0,0,0,0c0.7,0.9,1.5,1.7,2.3,2.3c0.1,0.1,0.2,0,0.1-0.1c-0.4-0.6-0.9-1.1-1.4-1.7
					c-0.2-0.2-0.4-0.5-0.7-0.8c0.1-0.1,0.2-0.2,0.3-0.4c0.1,0.1,0.1,0.1,0.2,0.2c0.6,0.7,1.3,1.2,2,1.8c0.1,0.1,0.2,0,0.1-0.1
					c-0.6-0.6-1.1-1.1-1.7-1.7c-0.1-0.1-0.3-0.3-0.4-0.4c0.2-0.2,0.4-0.4,0.5-0.6c0.1,0.1,0.1,0.2,0.2,0.3c0.5,0.5,1,1.1,1.5,1.6
					c0.1,0.1,0.2,0,0.1-0.1c-0.4-0.6-0.8-1-1.3-1.5c-0.1-0.1-0.3-0.3-0.4-0.4c0.1-0.2,0.3-0.3,0.4-0.5c0.6,0.8,1.3,1.5,2,2.1
					c0.1,0.1,0.2,0,0.1-0.1c-0.6-0.8-1.2-1.6-1.9-2.3c0.1-0.1,0.2-0.2,0.3-0.4c0.5,0.6,1.1,1.2,1.7,1.7c0.1,0.1,0.2,0,0.1-0.1
					c-0.5-0.6-1-1.2-1.6-1.8c0.1-0.1,0.3-0.3,0.4-0.4c0.1,0.1,0.2,0.3,0.3,0.4c0,0.1-0.1,0.1-0.1,0.2c0,0.1,0.1,0.2,0.1,0.1
					c0,0,0.1-0.1,0.1-0.1c0.4,0.5,0.9,1,1.4,1.4c0.1,0.1,0.2,0,0.1-0.1c-0.4-0.6-0.8-1.1-1.3-1.6c0.2-0.2,0.3-0.3,0.5-0.5
					c0.1,0.1,0.2,0.2,0.4,0.4c-0.1,0.1-0.1,0.1-0.2,0.2c0,0.1,0,0.2,0.1,0.1c0.1-0.1,0.2-0.1,0.2-0.2c0.3,0.3,0.6,0.6,0.9,0.8
					c0.1,0,0.1,0,0.1-0.1c-0.2-0.3-0.5-0.6-0.8-0.9c0.1-0.1,0.3-0.2,0.4-0.3c0.2,0.2,0.5,0.4,0.7,0.7c0.1,0.1,0.2,0,0.1-0.1
					c-0.2-0.3-0.3-0.5-0.5-0.7c0,0,0,0,0.1,0c0.1-0.1,0-0.2-0.1-0.1c0,0-0.1,0-0.1,0.1c-0.1-0.1-0.2-0.2-0.3-0.3
					c0.1-0.1,0.3-0.1,0.4-0.2c0.3,0.3,0.6,0.6,0.9,0.9c0.1,0.1,0.2,0,0.1-0.1c-0.2-0.4-0.4-0.7-0.7-1c0.1,0,0.2-0.1,0.3-0.1
					c0,0,0-0.1,0-0.1c-0.1,0-0.3,0-0.4,0.1c-0.1-0.1-0.1-0.1-0.2-0.2c0,0-0.1-0.1-0.1-0.1c0.2,0,0.3-0.1,0.5-0.1c0,0,0,0.1,0.1,0.1
					c0.3,0.3,0.5,0.7,0.8,1c0.1,0.1,0.2,0,0.1-0.1c-0.1-0.4-0.4-0.7-0.7-1c0,0,0,0,0-0.1c0.2,0,0.3,0,0.5,0c0,0.1,0.1,0.1,0.1,0.2
					C130.4,14.4,130.6,14.6,131,14.7C130.9,14.8,131,14.8,131,14.7z M126.8,15.8c-0.1-0.1-0.2-0.2-0.3-0.3c0.2-0.2,0.4-0.3,0.5-0.4
					c0,0,0.1,0.1,0.1,0.1c0.1,0.1,0.1,0.1,0.2,0.2C127.1,15.5,126.9,15.6,126.8,15.8z M127.5,15.1C127.5,15.1,127.4,15.1,127.5,15.1
					c-0.1-0.1-0.2-0.2-0.3-0.3c0.1-0.1,0.3-0.2,0.4-0.3c0.1,0.1,0.2,0.2,0.2,0.2C127.8,14.9,127.6,15,127.5,15.1z M128.5,15.4
					c-0.1,0.1-0.3,0.2-0.4,0.3c-0.1-0.1-0.2-0.2-0.4-0.3c0.1-0.1,0.2-0.2,0.3-0.2c0,0,0.1,0,0.1,0C128.3,15.2,128.4,15.3,128.5,15.4
					z M128.3,14.7c-0.1-0.1-0.2-0.2-0.2-0.2c0.2-0.1,0.3-0.1,0.5-0.2c0,0,0,0,0.1,0.1c0.1,0.1,0.1,0.1,0.2,0.2
					C128.6,14.5,128.4,14.6,128.3,14.7z"/>
			</g>
		</g>
		<path d="M122.4,25c-0.3,0.2-0.6,0.5-0.9,0.8c-0.2,0.2-0.4,0.4-0.4,0.6c0,0.1,0.1,0.2,0.1,0.1c0.4-0.5,0.8-0.9,1.3-1.3
			C122.6,25.1,122.5,25,122.4,25z"/>
		<path d="M122.6,25.6c-0.3,0.2-0.5,0.4-0.7,0.7c-0.2,0.2-0.5,0.4-0.4,0.7c0,0.1,0.1,0.1,0.1,0.1c0.2-0.1,0.4-0.4,0.5-0.6
			c0.2-0.3,0.4-0.5,0.7-0.8C122.8,25.7,122.7,25.5,122.6,25.6z"/>
		<path d="M122.8,26.2c-0.2,0.2-0.4,0.4-0.6,0.6c-0.2,0.2-0.4,0.3-0.5,0.5c0,0.1,0,0.2,0.1,0.1c0.2-0.1,0.4-0.3,0.5-0.5
			c0.2-0.2,0.4-0.4,0.5-0.7C122.9,26.2,122.8,26.1,122.8,26.2z"/>
		<g>
			<defs>
				<rect id="SVGID_33_" x="99.1" y="43.6" width="4.4" height="6.5"/>
			</defs>
			<clipPath id="SVGID_34_">
				<use xlink:href="#SVGID_33_"  style="overflow:visible;"/>
			</clipPath>
			<g class="st19">
				<path class="st20" d="M102.9,46.8l-1.8-3.1l-1.7,3.1c-0.4,0.7-0.4,1.5,0,2.2c0.6,1,1.8,1.3,2.8,0.7
					C103.2,49.1,103.5,47.8,102.9,46.8z"/>
			</g>
		</g>
		<g>
			<defs>
				<rect id="SVGID_35_" x="103.7" y="49.3" width="4.4" height="6.8"/>
			</defs>
			<clipPath id="SVGID_36_">
				<use xlink:href="#SVGID_35_"  style="overflow:visible;"/>
			</clipPath>
			<g class="st21">
				<path class="st22" d="M107.6,52.5l-1.8-3.1l-1.7,3.1c-0.4,0.6-0.4,1.5,0,2.2c0.6,1,1.8,1.3,2.8,0.7
					C107.9,54.8,108.2,53.5,107.6,52.5z"/>
			</g>
		</g>
		<g>
			<defs>
				<rect id="SVGID_37_" x="103.7" y="49.4" width="4.5" height="6.6"/>
			</defs>
			<clipPath id="SVGID_38_">
				<use xlink:href="#SVGID_37_"  style="overflow:visible;"/>
			</clipPath>
			<g class="st23">
				<path d="M107.2,51.5c-0.4-0.7-0.8-1.4-1.3-2.1c0,0,0,0,0,0c0,0,0,0,0,0c-0.5,0.7-0.9,1.4-1.3,2.1c-0.4,0.6-0.8,1.3-0.9,2
					c-0.1,0.6,0.1,1.1,0.5,1.5c0.7,0.6,2.2,1.1,3.3,0c0.4-0.4,0.6-1,0.5-1.5C108,52.8,107.6,52.2,107.2,51.5z M107.6,55
					c-0.3,0.3-0.6,0.5-1,0.6c-0.3,0.1-0.8,0.1-1.1,0c-0.4-0.1-0.8-0.3-1.1-0.6c-0.4-0.4-0.5-0.9-0.4-1.5c0.1-0.6,0.5-1.2,0.8-1.8
					c0.4-0.7,0.8-1.5,1.3-2.2c0.4,0.7,0.9,1.4,1.3,2.2c0.3,0.6,0.7,1.1,0.8,1.8C108.1,54,108,54.6,107.6,55z"/>
			</g>
		</g>
		<path d="M105.9,50.1c-0.2,0.1-0.3,0.3-0.4,0.4c0,0,0,0,0,0C105.6,50.4,105.7,50.3,105.9,50.1C105.9,50.1,105.9,50.1,105.9,50.1z"
			/>
		<path d="M105.8,50.4c-0.3,0.2-0.5,0.5-0.7,0.7c0,0,0,0,0,0c0.1-0.1,0.2-0.3,0.3-0.4C105.6,50.6,105.7,50.5,105.8,50.4
			C105.8,50.4,105.8,50.4,105.8,50.4z"/>
		<path d="M105.7,50.8c-0.3,0.2-0.6,0.5-0.8,0.8c0,0,0,0,0,0c0.1-0.1,0.2-0.2,0.3-0.3C105.3,51.1,105.5,50.9,105.7,50.8
			C105.7,50.8,105.7,50.8,105.7,50.8z"/>
		<path d="M105.5,51.1C105.5,51.1,105.5,51.1,105.5,51.1c-0.3,0.2-0.5,0.4-0.7,0.7c0,0,0,0,0,0c-0.1,0.1-0.2,0.2-0.3,0.4
			c0,0,0,0,0,0c0.1-0.1,0.1-0.1,0.2-0.2c0,0,0,0.1-0.1,0.1c-0.2,0.3-0.4,0.6-0.5,0.9c0,0,0,0,0,0c0.1-0.2,0.2-0.5,0.4-0.7
			c0,0.1-0.1,0.2-0.1,0.4c-0.2,0.3-0.3,0.5-0.3,0.8c0,0,0,0,0,0c0,0,0,0,0,0c0,0.1,0,0.3,0,0.4c0,0,0,0.1,0,0.1c0,0,0,0,0,0
			c0,0.1,0,0.1,0.1,0.2c0,0.1,0,0.2,0.1,0.3c0,0,0,0,0,0c0,0,0,0,0,0c0,0.1,0.1,0.1,0.1,0.2c0,0.1,0.1,0.1,0.1,0.2c0,0,0,0,0,0
			c0-0.1-0.1-0.3-0.1-0.4c0,0,0,0,0,0.1c0,0,0.1,0.1,0.1,0.1c0,0.2,0.1,0.4,0.3,0.4c0,0,0,0,0,0c-0.1-0.1-0.1-0.2-0.1-0.3
			c0.1,0.1,0.1,0.1,0.2,0.2c0.1,0.2,0.2,0.3,0.3,0.3c0,0,0,0,0,0c-0.1-0.1-0.2-0.2-0.2-0.3c0,0,0,0,0,0c0,0,0,0,0,0
			c0-0.1-0.1-0.1-0.1-0.2c-0.1-0.1-0.1-0.3-0.1-0.4h0c-0.1,0.1,0,0.3,0.1,0.5c-0.1-0.1-0.2-0.1-0.2-0.2c0,0,0-0.1,0-0.1
			c0-0.2,0-0.4,0-0.6c0,0,0,0,0,0c0,0.1-0.1,0.4-0.1,0.6c-0.1-0.1-0.1-0.2-0.1-0.2c0-0.3,0.1-0.5,0.2-0.8c0,0,0,0,0,0
			c-0.1,0.2-0.2,0.4-0.2,0.6c0-0.1-0.1-0.2-0.1-0.3c0.1-0.2,0.2-0.5,0.3-0.7c0,0,0,0,0,0c-0.1,0.2-0.2,0.4-0.3,0.5
			c0-0.1,0-0.2,0-0.3c0,0,0,0,0-0.1c0.1-0.2,0.2-0.5,0.4-0.7c0,0,0,0,0,0c-0.1,0.1-0.3,0.3-0.4,0.5c0-0.1,0.1-0.3,0.1-0.4
			c0.1-0.2,0.3-0.4,0.4-0.6c0,0,0,0,0,0c-0.1,0.1-0.2,0.2-0.3,0.4c0-0.1,0.1-0.3,0.1-0.4c0.2-0.2,0.4-0.4,0.6-0.6c0,0,0,0,0,0
			c-0.2,0.1-0.4,0.3-0.5,0.5c0,0,0-0.1,0-0.1C105,51.7,105.3,51.4,105.5,51.1z M104.3,54.1c0,0,0-0.1,0-0.1c0-0.1,0.1-0.2,0.1-0.4
			c0,0,0,0,0,0c0,0.1,0,0.1,0,0.2C104.4,54,104.3,54.1,104.3,54.1C104.3,54.2,104.3,54.2,104.3,54.1z M104.5,54.3c0,0.1,0,0.2,0,0.3
			c0-0.1-0.1-0.2-0.1-0.2c0-0.1,0-0.2,0-0.3C104.4,54.1,104.5,54.2,104.5,54.3z M104.4,53.4c-0.1,0.1-0.1,0.3-0.1,0.4
			c0-0.1,0-0.2,0-0.3c0,0,0,0,0,0c0.1-0.2,0.1-0.3,0.2-0.5C104.4,53.2,104.4,53.3,104.4,53.4z"/>
		<path d="M105.9,55.4c-0.1,0-0.1-0.1-0.2-0.1c-0.1,0-0.2-0.1-0.2-0.2c-0.1-0.1-0.2-0.3-0.2-0.4c0,0,0,0,0,0c0,0.2,0.1,0.3,0.2,0.5
			C105.5,55.3,105.7,55.4,105.9,55.4C105.9,55.4,105.9,55.4,105.9,55.4z"/>
		<path d="M106.1,55.3c-0.1,0-0.2,0-0.3-0.1c-0.1-0.1-0.2-0.2-0.2-0.3c0,0,0,0,0,0c0.1,0.1,0.1,0.2,0.2,0.3
			C105.9,55.3,106,55.4,106.1,55.3C106.1,55.3,106.1,55.3,106.1,55.3z"/>
		<path d="M106.2,55.2C106.2,55.2,106.2,55.2,106.2,55.2c-0.1,0-0.1,0-0.2,0c-0.1,0-0.1,0-0.1-0.1c0,0,0,0,0,0
			c0.1,0.1,0.1,0.1,0.2,0.1C106.1,55.3,106.2,55.3,106.2,55.2C106.3,55.2,106.3,55.2,106.2,55.2z"/>
		<g>
			<defs>
				<rect id="SVGID_39_" x="103.7" y="53.1" width="1.4" height="2"/>
			</defs>
			<clipPath id="SVGID_40_">
				<use xlink:href="#SVGID_39_"  style="overflow:visible;"/>
			</clipPath>
			<g class="st24">
				<path d="M104.5,54.7c-0.1-0.1-0.2-0.2-0.2-0.3c-0.1-0.1-0.1-0.2-0.1-0.4c0,0,0,0,0,0C104.1,54.2,104.2,54.6,104.5,54.7
					C104.5,54.7,104.5,54.7,104.5,54.7z"/>
			</g>
		</g>
		<g>
			<defs>
				<rect id="SVGID_41_" x="130.2" y="84.7" width="4.5" height="6.8"/>
			</defs>
			<clipPath id="SVGID_42_">
				<use xlink:href="#SVGID_41_"  style="overflow:visible;"/>
			</clipPath>
			<g class="st25">
				<path d="M133.7,86.8c-0.4-0.7-0.8-1.4-1.3-2.1c0,0,0,0,0,0c0,0,0,0,0,0c-0.5,0.7-0.9,1.4-1.3,2.1c-0.4,0.6-0.8,1.3-0.9,2
					c-0.1,0.6,0.1,1.1,0.5,1.5c0.7,0.6,2.2,1.1,3.3,0c0.4-0.4,0.6-1,0.5-1.5C134.5,88.1,134.1,87.5,133.7,86.8z M134.1,90.3
					c-0.3,0.3-0.6,0.5-1,0.6c-0.3,0.1-0.8,0-1.1,0c-0.4-0.1-0.8-0.3-1.1-0.6c-0.4-0.4-0.5-0.9-0.4-1.5c0.1-0.6,0.5-1.2,0.8-1.8
					c0.4-0.7,0.8-1.5,1.3-2.2c0.4,0.7,0.9,1.5,1.3,2.2c0.3,0.6,0.7,1.1,0.8,1.8C134.6,89.3,134.5,89.9,134.1,90.3z"/>
			</g>
		</g>
		<path d="M132.4,85.4c-0.2,0.1-0.3,0.3-0.4,0.4c0,0,0,0,0,0C132.1,85.7,132.3,85.6,132.4,85.4C132.4,85.4,132.4,85.4,132.4,85.4z"
			/>
		<path d="M132.3,85.7c-0.3,0.2-0.5,0.5-0.7,0.7c0,0,0,0,0,0c0.1-0.1,0.2-0.3,0.3-0.4C132.1,85.9,132.2,85.8,132.3,85.7
			C132.3,85.7,132.3,85.7,132.3,85.7z"/>
		<path d="M132.2,86.1c-0.3,0.2-0.6,0.5-0.8,0.8c0,0,0,0,0,0c0.1-0.1,0.2-0.2,0.3-0.3C131.9,86.4,132,86.2,132.2,86.1
			C132.2,86.1,132.2,86.1,132.2,86.1z"/>
		<g>
			<defs>
				<rect id="SVGID_43_" x="130.2" y="86.1" width="1.9" height="5"/>
			</defs>
			<clipPath id="SVGID_44_">
				<use xlink:href="#SVGID_43_"  style="overflow:visible;"/>
			</clipPath>
			<g class="st26">
				<path d="M132,86.4C132,86.4,132,86.4,132,86.4c-0.3,0.2-0.5,0.4-0.7,0.7c0,0,0,0,0,0c0,0,0,0,0,0c-0.1,0.1-0.2,0.2-0.3,0.4
					c0,0,0,0,0,0c0.1-0.1,0.1-0.1,0.2-0.2c0,0,0,0.1-0.1,0.1c-0.2,0.3-0.4,0.6-0.5,0.9c0,0,0,0,0,0c0.1-0.2,0.2-0.4,0.4-0.7
					c0,0.1-0.1,0.2-0.1,0.4c-0.2,0.3-0.3,0.5-0.3,0.8c0,0,0,0,0,0c0,0,0,0,0,0c0,0.1,0,0.3,0,0.4c0,0,0,0.1,0,0.1c0,0,0,0,0,0
					c0,0.1,0,0.1,0.1,0.2c0,0.1,0,0.2,0.1,0.3c0,0,0,0,0,0c0,0,0,0,0-0.1c0,0.1,0.1,0.1,0.1,0.2c0,0.1,0.1,0.1,0.1,0.2c0,0,0,0,0,0
					c0-0.1-0.1-0.3-0.1-0.4c0,0,0,0,0,0.1c0,0,0.1,0.1,0.1,0.1c0,0.2,0.1,0.4,0.3,0.4c0,0,0,0,0,0c-0.1-0.1-0.1-0.2-0.1-0.3
					c0.1,0.1,0.1,0.1,0.2,0.2c0.1,0.2,0.2,0.3,0.3,0.3c0,0,0,0,0,0c-0.1-0.1-0.2-0.2-0.2-0.3c0,0,0,0,0,0c0,0,0,0,0,0
					c0-0.1-0.1-0.1-0.1-0.2c-0.1-0.1-0.1-0.3-0.1-0.4c0,0,0,0,0,0c-0.1,0.1,0,0.3,0.1,0.5c-0.1-0.1-0.2-0.1-0.2-0.2c0,0,0-0.1,0-0.1
					c0-0.2,0-0.4,0-0.6c0,0,0,0,0,0c0,0.1-0.1,0.4-0.1,0.6c-0.1-0.1-0.1-0.2-0.1-0.2c0-0.3,0.1-0.5,0.2-0.8c0,0,0,0,0,0
					c-0.1,0.2-0.2,0.4-0.2,0.6c0-0.1-0.1-0.2-0.1-0.3c0.1-0.2,0.2-0.5,0.3-0.7c0,0,0,0,0,0c-0.1,0.2-0.2,0.4-0.3,0.5
					c0-0.1,0-0.2,0-0.3c0,0,0,0,0-0.1c0.1-0.2,0.2-0.4,0.4-0.7c0,0,0,0,0,0c-0.1,0.1-0.3,0.3-0.4,0.5c0-0.1,0.1-0.3,0.1-0.4
					c0.1-0.2,0.3-0.4,0.4-0.6c0,0,0,0,0,0c-0.1,0.1-0.2,0.2-0.3,0.4c0-0.1,0.1-0.3,0.1-0.4c0.2-0.2,0.4-0.4,0.6-0.6c0,0,0,0,0,0
					c-0.2,0.1-0.4,0.3-0.5,0.5c0,0,0-0.1,0-0.1C131.6,87,131.8,86.7,132,86.4z M130.8,89.4c0,0,0-0.1,0-0.1c0-0.1,0-0.2,0.1-0.3
					c0,0,0,0,0,0c0,0.1,0,0.1,0,0.2C130.9,89.3,130.8,89.4,130.8,89.4C130.8,89.5,130.8,89.5,130.8,89.4z M131,89.6
					c0,0.1,0,0.2,0,0.3c0-0.1-0.1-0.2-0.1-0.2c0-0.1,0-0.2,0-0.3C131,89.5,131,89.5,131,89.6z M130.9,88.7c-0.1,0.1-0.1,0.3-0.1,0.4
					c0-0.1,0-0.2,0-0.2c0,0,0,0,0,0c0.1-0.2,0.1-0.3,0.2-0.5C130.9,88.5,130.9,88.6,130.9,88.7z"/>
			</g>
		</g>
		<path d="M132.4,90.7c-0.1,0-0.1-0.1-0.2-0.1c-0.1,0-0.2-0.1-0.2-0.2c-0.1-0.1-0.2-0.3-0.2-0.4c0,0,0,0,0,0c0,0.2,0.1,0.3,0.2,0.5
			C132,90.6,132.2,90.7,132.4,90.7C132.4,90.7,132.4,90.7,132.4,90.7z"/>
		<path d="M132.6,90.6c-0.1,0-0.2,0-0.3-0.1c-0.1-0.1-0.2-0.2-0.2-0.3c0,0,0,0,0,0c0.1,0.1,0.1,0.2,0.2,0.3
			C132.4,90.6,132.5,90.7,132.6,90.6C132.6,90.7,132.6,90.6,132.6,90.6z"/>
		<path d="M132.8,90.5C132.7,90.5,132.7,90.5,132.8,90.5c-0.1,0-0.1,0-0.2,0c-0.1,0-0.1,0-0.1-0.1c0,0,0,0,0,0
			c0,0.1,0.1,0.1,0.2,0.1C132.7,90.6,132.7,90.6,132.8,90.5C132.8,90.5,132.8,90.5,132.8,90.5z"/>
		<g>
			<defs>
				<rect id="SVGID_45_" x="130.2" y="89.1" width="0.9" height="1"/>
			</defs>
			<clipPath id="SVGID_46_">
				<use xlink:href="#SVGID_45_"  style="overflow:visible;"/>
			</clipPath>
			<g class="st27">
				<path d="M131,90c-0.1-0.1-0.2-0.2-0.2-0.3c-0.1-0.1-0.1-0.2-0.1-0.4c0,0,0,0,0,0C130.6,89.5,130.7,89.9,131,90
					C131,90,131,90,131,90z"/>
			</g>
		</g>
		<g>
			<defs>
				<rect id="SVGID_47_" x="99" y="43.7" width="4.5" height="6.8"/>
			</defs>
			<clipPath id="SVGID_48_">
				<use xlink:href="#SVGID_47_"  style="overflow:visible;"/>
			</clipPath>
			<g class="st28">
				<path d="M102.5,45.8c-0.4-0.7-0.8-1.4-1.3-2.1c0,0,0,0,0,0c0,0,0,0,0,0c-0.5,0.7-0.9,1.4-1.3,2.1c-0.4,0.6-0.8,1.3-0.9,2
					c-0.1,0.6,0.1,1.1,0.5,1.5c0.7,0.6,2.2,1.1,3.3,0c0.4-0.4,0.6-1,0.5-1.5C103.3,47.1,102.9,46.5,102.5,45.8z M102.9,49.3
					c-0.3,0.3-0.6,0.5-1,0.6c-0.3,0.1-0.8,0.1-1.1,0c-0.4-0.1-0.8-0.3-1.1-0.6c-0.4-0.4-0.5-0.9-0.4-1.5c0.1-0.6,0.5-1.2,0.8-1.8
					c0.4-0.7,0.8-1.5,1.3-2.2c0.4,0.7,0.9,1.4,1.3,2.2c0.3,0.6,0.7,1.1,0.8,1.8C103.4,48.3,103.3,48.9,102.9,49.3z"/>
			</g>
		</g>
		<path d="M101.2,44.4c-0.2,0.1-0.3,0.3-0.4,0.4c0,0,0,0,0,0C100.9,44.7,101,44.6,101.2,44.4C101.2,44.4,101.2,44.4,101.2,44.4z"/>
		<path d="M101.1,44.7c-0.3,0.2-0.5,0.5-0.7,0.7c0,0,0,0,0,0c0.1-0.1,0.2-0.3,0.3-0.4C100.9,44.9,101,44.8,101.1,44.7
			C101.1,44.7,101.1,44.7,101.1,44.7z"/>
		<path d="M101,45.1c-0.3,0.2-0.6,0.5-0.8,0.8c0,0,0,0,0,0c0.1-0.1,0.2-0.2,0.3-0.3C100.7,45.4,100.8,45.2,101,45.1
			C101,45.1,101,45.1,101,45.1z"/>
		<path d="M100.8,45.4C100.8,45.4,100.8,45.4,100.8,45.4c-0.3,0.2-0.5,0.4-0.7,0.7c0,0,0,0,0,0c0,0,0,0,0,0
			c-0.1,0.1-0.2,0.2-0.3,0.4c0,0,0,0,0,0c0.1-0.1,0.1-0.1,0.2-0.2c0,0,0,0.1-0.1,0.1c-0.2,0.3-0.4,0.6-0.5,0.9c0,0,0,0,0,0
			c0.1-0.2,0.2-0.5,0.4-0.7c0,0.1-0.1,0.2-0.1,0.4c-0.2,0.3-0.3,0.5-0.3,0.8c0,0,0,0,0,0c0,0,0,0,0,0c0,0.1,0,0.3,0,0.4
			c0,0,0,0.1,0,0.1c0,0,0,0,0,0c0,0.1,0,0.1,0.1,0.2c0,0.1,0,0.2,0.1,0.3c0,0,0,0,0,0c0,0,0,0,0,0c0,0.1,0.1,0.1,0.1,0.2
			c0,0.1,0.1,0.1,0.1,0.2c0,0,0,0,0,0c0-0.1-0.1-0.3-0.1-0.4c0,0,0,0,0,0.1c0,0,0.1,0.1,0.1,0.1c0,0.2,0.1,0.4,0.3,0.4c0,0,0,0,0,0
			c-0.1-0.1-0.1-0.2-0.2-0.3c0.1,0.1,0.1,0.1,0.2,0.2c0.1,0.2,0.2,0.3,0.3,0.3c0,0,0,0,0,0c-0.1-0.1-0.2-0.2-0.2-0.3c0,0,0,0,0,0
			c0,0,0,0,0,0c0-0.1-0.1-0.1-0.1-0.2c-0.1-0.1-0.1-0.3-0.1-0.4h0c-0.1,0.1,0,0.3,0.1,0.5c-0.1-0.1-0.2-0.1-0.2-0.2c0,0,0-0.1,0-0.1
			c0-0.2,0-0.4,0-0.6c0,0,0,0,0,0c0,0.1-0.1,0.4-0.1,0.6c-0.1-0.1-0.1-0.2-0.1-0.2c0-0.3,0.1-0.5,0.2-0.8c0,0,0,0,0,0
			c-0.1,0.2-0.2,0.4-0.2,0.6c0-0.1-0.1-0.2-0.1-0.3c0.1-0.2,0.2-0.5,0.3-0.7c0,0,0,0,0,0c-0.1,0.2-0.2,0.4-0.3,0.5
			c0-0.1,0-0.2,0-0.3c0,0,0,0,0-0.1c0.1-0.2,0.2-0.5,0.4-0.7c0,0,0,0,0,0c-0.1,0.1-0.3,0.3-0.4,0.5c0-0.1,0.1-0.3,0.1-0.4
			c0.1-0.2,0.3-0.4,0.4-0.6c0,0,0,0,0,0c-0.1,0.1-0.2,0.2-0.3,0.4c0-0.1,0.1-0.3,0.1-0.4c0.2-0.2,0.4-0.4,0.6-0.6c0,0,0,0,0,0
			c-0.2,0.1-0.4,0.3-0.5,0.5c0,0,0-0.1,0-0.1C100.3,46,100.6,45.7,100.8,45.4z M99.6,48.5c0,0,0-0.1,0-0.1c0-0.1,0.1-0.2,0.1-0.4
			c0,0,0,0,0,0c0,0.1,0,0.1,0,0.2C99.7,48.3,99.6,48.4,99.6,48.5C99.6,48.5,99.6,48.5,99.6,48.5z M99.8,48.6c0,0.1,0,0.2,0,0.3
			c0-0.1-0.1-0.2-0.1-0.2c0-0.1,0-0.2,0-0.3C99.7,48.5,99.8,48.5,99.8,48.6z M99.7,47.7c-0.1,0.1-0.1,0.3-0.1,0.4c0-0.1,0-0.2,0-0.3
			c0,0,0,0,0,0c0.1-0.2,0.1-0.3,0.2-0.5C99.7,47.5,99.7,47.6,99.7,47.7z"/>
		<path d="M101.2,49.7c-0.1,0-0.1-0.1-0.2-0.1c-0.1,0-0.2-0.1-0.2-0.2c-0.1-0.1-0.2-0.3-0.2-0.4c0,0,0,0,0,0c0,0.2,0.1,0.3,0.2,0.5
			C100.8,49.6,101,49.7,101.2,49.7C101.2,49.7,101.2,49.7,101.2,49.7z"/>
		<path d="M101.4,49.6c-0.1,0-0.2,0-0.3-0.1c-0.1-0.1-0.2-0.2-0.2-0.3c0,0,0,0,0,0c0.1,0.1,0.1,0.2,0.2,0.3
			C101.2,49.6,101.3,49.7,101.4,49.6C101.4,49.7,101.4,49.6,101.4,49.6z"/>
		<path d="M101.6,49.5C101.5,49.5,101.5,49.5,101.6,49.5c-0.1,0-0.1,0-0.2,0c-0.1,0-0.1,0-0.1-0.1c0,0,0,0,0,0
			c0.1,0.1,0.1,0.1,0.2,0.1C101.5,49.6,101.5,49.6,101.6,49.5C101.6,49.5,101.6,49.5,101.6,49.5z"/>
		<path d="M99.8,49c-0.1-0.1-0.2-0.2-0.2-0.3c-0.1-0.1-0.1-0.2-0.1-0.4c0,0,0,0,0,0C99.4,48.5,99.5,48.9,99.8,49
			C99.8,49,99.8,49,99.8,49z"/>
	</g>
</g>
</svg>
